<?xml version="1.0" encoding="UTF-8" standalone="no"?>
<svg
   version="1.1"
   id="Layer_1"
   x="0px"
   y="0px"
   width="30"
   viewBox="0 0 30 30"
   enable-background="new 0 0 750 750"
   xml:space="preserve"
   height="30"
   xmlns="http://www.w3.org/2000/svg"
   xmlns:svg="http://www.w3.org/2000/svg"><defs
   id="defs8" />



<path
   id="path4"
   d="m 25.06717,24.639444 c 0.292343,-0.806579 0.605112,-1.616066 0.945881,-2.443788 0.303033,-0.168697 0.582467,-0.312383 0.849325,-0.475405 0.05254,-0.0321 0.07825,-0.138456 0.07941,-0.211115 0.0071,-0.44601 0.0068,-0.892218 9.9e-4,-1.338262 -0.0014,-0.09566 -0.03558,-0.19091 -0.05467,-0.28635 0.512697,-1.322249 1.024589,-2.644793 1.540148,-3.965993 0.03036,-0.07779 0.09029,-0.144725 0.152942,-0.227144 0.01953,2.193512 0.02428,4.397453 0.02403,6.601398 -4.7e-5,0.394744 -0.315467,0.564428 -0.610361,0.730018 -0.966296,0.542589 -1.937783,1.076492 -2.927701,1.616641 z M 3.2684325,10.325997 c -0.124615,0.372001 -0.2370059,0.748358 -0.3762362,1.115149 -0.354875,0.934886 -0.7202928,1.86603 -1.0859705,2.797021 -0.037689,0.09596 -0.1055523,0.180783 -0.1758129,0.281268 C 1.6108582,12.321075 1.6059449,10.112222 1.6061805,7.9033695 1.606222,7.5107044 1.8968523,7.3072015 2.2019935,7.1359738 3.1727454,6.5912449 4.1492159,6.056087 5.1439449,5.5142383 4.855327,6.3226541 4.5462435,7.1340644 4.2022,7.9605189 3.9230651,8.1102972 3.6851091,8.257634 3.432272,8.3748204 3.2910453,8.4402764 3.2611844,8.5231292 3.263087,8.6605412 c 0.00769,0.5550754 0.00451,1.1102906 0.00535,1.6654558 z M 25.046743,24.642354 c -1.718319,0.961103 -3.435497,1.924133 -5.155306,2.882727 -1.457565,0.812429 -2.918765,1.618739 -4.376901,2.430205 -0.271725,0.151213 -0.541936,0.152649 -0.807976,0.0046 C 13.857753,29.487407 13.012871,29.00835 12.165014,28.534296 11.239593,28.016868 10.311652,27.503667 9.3864573,26.98586 8.4878586,26.482931 7.59229,25.97492 6.69364,25.472084 5.8961806,25.025874 5.0974468,24.581772 4.2972105,24.140249 3.4299124,23.661723 2.5602262,23.187266 1.6733473,22.701039 1.9262349,22.050299 2.1729469,21.412408 2.4219419,20.775356 2.9200465,19.500964 3.4164135,18.225924 3.9190521,16.95321 4.4558508,15.593999 5.00332,14.238739 5.5377211,12.878652 5.8170195,12.167813 6.1131841,11.46045 6.3379678,10.733016 6.5687203,9.9862706 7.2739508,9.8337321 7.8786112,10.173718 c 0.9759211,0.548741 1.9679658,1.070522 2.9523068,1.605237 1.322108,0.718201 2.641979,1.440281 3.965505,2.156015 0.799553,0.432382 1.606087,0.852638 2.406127,1.284184 1.111275,0.599423 2.218227,1.206363 3.329309,1.80612 0.66259,0.357665 1.329544,0.707739 2.03505,1.082759 1.249728,-3.33101 2.492524,-6.643545 3.741905,-9.9736286 -0.353969,-0.1962967 -0.696117,-0.3860377 -1.072171,-0.594581 -0.128183,0.3115098 -0.254176,0.5943826 -0.362002,0.883617 -0.579363,1.554102 -1.166476,3.1056616 -1.725317,4.6667066 -0.271024,0.757061 -0.943128,0.771224 -1.535802,0.442816 -0.640503,-0.354917 -1.283777,-0.705154 -1.927023,-1.055397 -1.124328,-0.612188 -2.24864,-1.22441 -3.374775,-1.833467 C 15.692533,10.309217 15.068056,9.9835141 14.448758,9.6488174 13.329046,9.0436795 12.212788,8.4325436 11.092472,7.8284664 10.319702,7.4117874 9.5415531,7.0044942 8.767642,6.5897898 8.1721867,6.2707134 7.5795893,5.9466253 6.9808279,5.6221126 5.208443,10.163273 3.443942,14.684232 1.679441,19.205191 c -0.024538,-0.0016 -0.049076,-0.0033 -0.073614,-0.0049 0,-1.538958 0,-3.077916 0.020492,-4.654094 C 1.700673,14.418985 1.7685362,14.334158 1.8062256,14.238202 2.1719035,13.307177 2.5373213,12.376034 2.8921963,11.441147 3.0314266,11.074357 3.1438175,10.698 3.2884091,10.3186 3.3427576,10.223911 3.377679,10.136814 3.4114165,10.04929 3.6777033,9.3584757 3.9437629,8.6675748 4.2235262,7.9610894 4.5462435,7.1340656 4.855327,6.3226549 5.1644124,5.5112451 6.8455147,4.5687447 8.5274371,3.6276157 10.207471,2.6833278 c 1.460565,-0.8209337 2.921905,-1.6406507 4.37674,-2.47104589 0.487577,-0.27830223 0.895541,-0.10380565 1.31986,0.13909131 1.179296,0.67507948 2.366501,1.33717008 3.548858,2.00725438 1.014855,0.5751573 2.025246,1.1577241 3.041459,1.73061 0.941388,0.530706 1.889878,1.0495773 2.831492,1.5799057 0.805615,0.4537303 1.605908,0.916332 2.408585,1.3749594 0.200168,0.1143703 0.391813,0.247653 0.603138,0.3373856 0.206782,0.087805 0.211712,0.2145643 0.144603,0.3807099 -0.462527,1.1451817 -0.929672,2.2886238 -1.388207,3.4352998 -0.508344,1.271216 -1.012951,2.543865 -1.512182,3.818461 -0.591555,1.510304 -1.191596,3.017809 -1.754451,4.538175 -0.202034,0.545723 -0.854721,0.757912 -1.436149,0.428509 -0.74534,-0.422268 -1.495,-0.837595 -2.248125,-1.246709 C 18.763189,17.98634 17.380294,17.241901 15.996852,16.498448 15.223999,16.083123 14.444814,15.67883 13.673319,15.261179 12.394153,14.568694 11.120753,13.8662 9.8412384,13.174318 9.1392707,12.79474 8.4297688,12.428242 7.6734395,12.029355 6.4196622,15.370844 5.1733298,18.692492 3.9203269,22.031918 c 0.3556927,0.186511 0.7122465,0.373472 1.0924671,0.572844 0.2334777,-0.614218 0.46061,-1.201536 0.6801922,-1.791495 0.4828994,-1.297412 0.9549313,-2.598673 1.446317,-3.893047 0.1805668,-0.475639 0.7170205,-0.708603 1.2446573,-0.430077 0.6678841,0.352558 1.3352504,0.706105 1.9997925,1.064525 0.780893,0.421174 1.558285,0.848444 2.33762,1.272336 1.125079,0.611947 2.249821,1.22449 3.376074,1.834402 0.891551,0.482809 1.78464,0.962953 2.677976,1.442657 1.274101,0.684164 2.549102,1.366758 3.823585,2.050251 0.203121,0.108931 0.40555,0.219076 0.661557,0.357449 1.764833,-4.527341 3.521629,-9.034061 5.278419,-13.540777 0.02228,0.0023 0.04457,0.0047 0.06684,0.0071 0,1.549828 0,3.099653 -0.02057,4.686631 -0.06673,0.109137 -0.126659,0.17608 -0.157013,0.253861 -0.51556,1.3212 -1.027451,2.643744 -1.542076,3.987645 -0.29731,0.77032 -0.592692,1.518986 -0.894605,2.287686 -0.319297,0.829517 -0.632066,1.639003 -0.944835,2.448493 M 15.489315,2.0225048 C 15.335049,1.9803676 15.143161,1.8601305 15.03316,1.9098865 14.6033,2.1043208 14.198843,2.3516833 13.785852,2.5809087 12.960531,3.0389931 12.134393,3.4957228 11.311297,3.9575366 10.684672,4.3091161 10.062219,4.6676797 9.4088667,5.0396746 13.560956,7.2799828 17.680813,9.5028983 21.831077,11.742223 22.473036,10.024672 23.101434,8.343402 23.735133,6.6479466 20.982738,5.1076612 18.252174,3.5795918 15.489315,2.0225048 M 8.5568429,18.477156 c -0.2053011,-0.185859 -0.2066272,0.06042 -0.2327976,0.126898 -0.1411062,0.358402 -0.2511314,0.728153 -0.3864492,1.08886 -0.4468671,1.191158 -0.8978392,2.380889 -1.3535056,3.568909 -0.055277,0.144124 -0.069127,0.226439 0.099591,0.3181 0.778889,0.42314 1.5468699,0.865099 2.3200977,1.298072 0.8250725,0.462001 1.6526268,0.919846 2.4773298,1.38246 1.160452,0.650958 2.317595,1.307493 3.482479,1.950893 0.07993,0.04414 0.232878,0.03447 0.317336,-0.01076 0.577517,-0.309189 1.145551,-0.634993 1.717112,-0.954644 0.832196,-0.465415 1.665386,-0.929168 2.496974,-1.395599 0.443448,-0.248725 0.884423,-0.501597 1.343709,-0.762362 -0.798704,-0.425395 -1.575426,-0.835057 -2.348215,-1.25156 C 17.142862,23.110094 15.798495,22.378057 14.451068,21.651347 13.695122,21.243643 12.934251,20.84451 12.17834,20.43675 10.982773,19.791824 9.7895054,19.142897 8.5568429,18.477151 Z"
   style="fill:#808085;fill-opacity:1;stroke-width:0.0584206" />




</svg>
