<svg width="110" height="43" viewBox="0 0 110 43" fill="none" xmlns="http://www.w3.org/2000/svg">
    <path
        id="path"
        d="M 7.859 42.947 C 7.811 42.918 7.757 42.888 7.739 42.88 C 7.721 42.873 7.681 42.849 7.65 42.828 C 7.62 42.807 7.321 42.633 6.986 42.44 C 6.65 42.248 6.35 42.075 6.317 42.055 C 6.285 42.036 6.08 41.918 5.862 41.794 C 5.644 41.669 5.426 41.544 5.376 41.515 C 5.286 41.464 5.206 41.418 5.074 41.343 C 5.035 41.321 4.895 41.24 4.763 41.163 C 4.543 41.034 4.197 40.835 4.011 40.73 C 3.969 40.707 3.91 40.671 3.88 40.651 C 3.85 40.631 3.796 40.601 3.76 40.584 C 3.724 40.567 3.671 40.537 3.641 40.518 C 3.611 40.498 3.549 40.461 3.504 40.436 C 3.407 40.382 3.365 40.357 3.008 40.153 C 2.657 39.95 2.67 39.958 2.224 39.699 C 1.732 39.414 1.781 39.443 1.275 39.154 C 1.036 39.018 0.741 38.848 0.622 38.778 C 0.502 38.707 0.345 38.617 0.273 38.577 C 0.201 38.537 0.11 38.482 0.071 38.453 L 0 38.401 L 0.001 33.798 L 0.001 29.194 L 0.078 29.145 C 0.12 29.118 0.495 28.9 0.911 28.661 C 1.327 28.422 1.751 28.178 1.853 28.119 C 2.039 28.011 2.114 27.968 2.256 27.888 C 2.36 27.829 2.43 27.789 2.747 27.607 C 2.897 27.521 3.05 27.433 3.087 27.412 C 3.125 27.391 3.218 27.336 3.295 27.29 C 3.551 27.138 3.543 27.14 3.635 27.191 C 3.68 27.215 3.752 27.255 3.795 27.279 C 3.839 27.302 3.946 27.365 4.035 27.418 C 4.199 27.516 4.423 27.644 4.6 27.742 C 4.654 27.771 4.786 27.847 4.894 27.909 C 5.093 28.025 5.172 28.069 5.308 28.147 C 5.35 28.17 5.416 28.208 5.455 28.231 C 5.494 28.253 5.703 28.371 5.919 28.493 C 6.134 28.615 6.318 28.725 6.326 28.737 C 6.343 28.763 6.278 28.81 6.038 28.946 C 5.769 29.099 5.66 29.162 5.592 29.203 C 5.556 29.224 5.489 29.263 5.444 29.288 C 5.251 29.398 5.215 29.418 5.101 29.486 C 4.988 29.552 4.954 29.572 4.763 29.68 C 4.721 29.704 4.655 29.741 4.616 29.763 C 4.577 29.785 4.329 29.928 4.066 30.08 C 3.802 30.233 3.463 30.428 3.314 30.513 L 3.041 30.669 L 3.041 36.424 L 3.107 36.461 C 3.183 36.504 3.778 36.846 4.382 37.194 C 4.616 37.328 4.969 37.531 5.167 37.643 C 5.364 37.756 5.599 37.891 5.687 37.944 C 5.776 37.997 5.879 38.058 5.916 38.079 C 5.953 38.1 6.072 38.168 6.18 38.231 C 6.38 38.346 6.458 38.391 6.594 38.468 C 6.636 38.492 6.705 38.531 6.747 38.555 C 6.789 38.578 6.86 38.619 6.905 38.644 C 6.95 38.67 7.006 38.702 7.03 38.715 C 7.054 38.728 7.115 38.766 7.166 38.798 C 7.217 38.831 7.264 38.857 7.272 38.857 C 7.279 38.857 7.311 38.875 7.343 38.898 C 7.375 38.92 7.435 38.958 7.477 38.981 C 7.519 39.005 7.649 39.079 7.765 39.146 C 7.881 39.213 7.987 39.267 8 39.267 C 8.014 39.267 8.119 39.213 8.236 39.146 C 8.455 39.02 8.539 38.971 8.66 38.903 C 8.699 38.881 8.784 38.831 8.85 38.792 C 8.916 38.753 9 38.705 9.036 38.684 C 9.072 38.663 9.189 38.595 9.297 38.533 C 9.491 38.421 9.568 38.377 9.706 38.299 C 9.745 38.276 9.831 38.227 9.897 38.188 C 10.009 38.121 10.044 38.101 10.235 37.993 C 10.447 37.873 11.124 37.484 11.532 37.249 C 11.741 37.127 12.08 36.933 12.284 36.816 C 12.487 36.7 12.723 36.564 12.807 36.515 L 12.959 36.425 L 12.965 33.656 L 12.97 30.888 L 12.877 30.834 C 12.826 30.805 12.677 30.717 12.546 30.64 C 12.415 30.563 12.305 30.5 12.302 30.5 C 12.298 30.5 12.244 30.47 12.181 30.433 C 12.048 30.354 11.265 29.906 11.019 29.766 C 10.977 29.742 10.908 29.704 10.866 29.68 C 10.758 29.619 10.685 29.577 10.376 29.399 C 10.226 29.313 10.049 29.213 9.983 29.177 C 9.917 29.141 9.838 29.094 9.806 29.072 C 9.774 29.05 9.742 29.032 9.736 29.032 C 9.73 29.032 9.672 29.002 9.608 28.964 C 9.545 28.927 9.464 28.88 9.428 28.859 C 9.392 28.838 9.137 28.693 8.863 28.536 C 8.588 28.379 8.326 28.227 8.28 28.199 C 8.234 28.17 8.192 28.147 8.185 28.147 C 8.179 28.147 8.137 28.124 8.092 28.096 C 8.047 28.068 7.967 28.021 7.913 27.991 C 7.83 27.945 7.654 27.844 7.046 27.496 C 7.007 27.474 6.941 27.436 6.899 27.413 C 6.71 27.306 6.674 27.285 6.566 27.221 C 6.502 27.184 6.446 27.153 6.442 27.153 C 6.437 27.153 6.355 27.106 6.26 27.048 C 6.165 26.99 6.034 26.914 5.97 26.878 C 5.905 26.843 5.816 26.793 5.771 26.768 C 5.726 26.742 5.657 26.704 5.618 26.681 C 5.579 26.659 5.496 26.611 5.432 26.573 C 5.369 26.536 5.313 26.506 5.309 26.506 C 5.305 26.506 5.172 26.428 5.013 26.333 C 4.855 26.238 4.722 26.16 4.719 26.16 C 4.715 26.16 4.591 26.091 4.443 26.006 C 4.295 25.921 4.076 25.796 3.956 25.728 C 3.296 25.356 3.247 25.321 3.192 25.191 C 3.165 25.13 3.161 24.689 3.161 22.337 L 3.161 19.555 L 3.231 19.504 C 3.27 19.476 3.365 19.42 3.442 19.381 L 3.583 19.308 L 3.682 19.359 C 3.737 19.387 3.806 19.426 3.836 19.446 C 3.881 19.476 4.283 19.709 4.659 19.923 C 4.698 19.945 4.762 19.981 4.801 20.003 C 4.84 20.025 5.176 20.216 5.547 20.426 C 5.919 20.637 6.24 20.825 6.261 20.845 C 6.297 20.88 6.288 20.888 6.099 21.003 C 5.957 21.088 5.895 21.138 5.886 21.175 C 5.88 21.203 5.877 21.739 5.881 22.366 L 5.887 23.505 L 6.099 23.642 C 6.216 23.717 6.37 23.81 6.442 23.849 C 6.514 23.888 6.587 23.931 6.605 23.944 C 6.623 23.958 6.661 23.981 6.69 23.997 C 6.719 24.013 6.775 24.045 6.815 24.068 C 6.856 24.09 6.925 24.129 6.97 24.154 C 7.015 24.18 7.136 24.249 7.237 24.309 C 7.467 24.443 7.543 24.487 7.695 24.569 C 7.761 24.604 7.825 24.641 7.837 24.649 C 7.849 24.658 7.895 24.686 7.94 24.711 C 8.034 24.763 8.143 24.825 8.246 24.884 C 8.285 24.906 8.508 25.033 8.742 25.167 C 8.975 25.3 9.198 25.428 9.237 25.45 C 9.276 25.473 9.34 25.509 9.379 25.531 C 9.418 25.553 9.49 25.594 9.54 25.623 C 9.589 25.651 9.839 25.794 10.096 25.94 C 10.352 26.087 10.576 26.215 10.594 26.226 C 10.612 26.237 10.681 26.276 10.747 26.314 C 10.813 26.351 10.896 26.399 10.932 26.42 C 10.968 26.44 11.155 26.547 11.346 26.657 C 11.538 26.767 11.727 26.875 11.766 26.897 C 11.805 26.919 11.871 26.957 11.913 26.981 C 11.955 27.004 12.024 27.043 12.066 27.067 C 12.108 27.091 12.176 27.13 12.218 27.153 C 12.322 27.212 12.391 27.252 12.709 27.434 C 12.859 27.52 13.013 27.609 13.052 27.631 C 13.091 27.653 13.155 27.69 13.194 27.712 C 13.233 27.734 13.386 27.822 13.534 27.907 C 13.682 27.991 13.807 28.06 13.813 28.06 C 13.818 28.06 13.849 28.079 13.881 28.101 C 13.958 28.153 14.319 28.362 15.056 28.78 C 15.757 29.178 15.802 29.205 15.914 29.305 L 16 29.383 L 16 33.89 C 16 38.155 15.999 38.399 15.962 38.431 C 15.941 38.449 15.806 38.532 15.662 38.614 C 15.413 38.757 15.236 38.859 14.322 39.387 C 14.1 39.515 13.771 39.704 13.592 39.807 C 13.412 39.911 13.142 40.066 12.992 40.152 C 12.704 40.318 12.622 40.365 12.507 40.43 C 12.468 40.452 12.384 40.501 12.321 40.538 C 12.257 40.575 12.199 40.606 12.192 40.606 C 12.185 40.606 12.163 40.619 12.144 40.636 C 12.125 40.652 12.065 40.689 12.011 40.719 C 11.957 40.749 11.825 40.824 11.717 40.887 C 11.416 41.062 10.95 41.33 10.78 41.427 C 10.67 41.489 9.936 41.911 9.69 42.053 C 9.654 42.074 9.467 42.181 9.276 42.29 C 8.922 42.493 8.493 42.741 8.295 42.858 C 8.01 43.027 7.996 43.03 7.859 42.947 Z M 11.826 25.116 C 11.61 24.994 11.366 24.853 11.284 24.804 C 11.202 24.754 11.131 24.713 11.127 24.713 C 11.123 24.713 11.067 24.683 11.004 24.646 C 10.874 24.569 10.886 24.576 10.409 24.303 C 10.217 24.193 10.006 24.074 9.94 24.038 C 9.874 24.002 9.794 23.955 9.763 23.933 C 9.731 23.911 9.696 23.893 9.686 23.893 C 9.647 23.893 9.549 23.795 9.564 23.772 C 9.573 23.759 9.659 23.706 9.754 23.654 C 10.035 23.502 10.006 23.654 10.006 22.337 C 10.006 21.645 9.998 21.176 9.985 21.152 C 9.968 21.12 9.812 21.014 9.617 20.902 C 9.597 20.89 9.497 20.831 9.395 20.77 C 9.293 20.71 9.166 20.636 9.112 20.606 C 9.058 20.576 8.926 20.5 8.818 20.438 C 8.526 20.269 8.514 20.262 8.207 20.088 C 8.051 20 7.87 19.898 7.804 19.861 C 7.738 19.825 7.562 19.725 7.412 19.639 C 7.117 19.469 7.041 19.426 6.916 19.356 C 6.871 19.331 6.824 19.303 6.812 19.294 C 6.8 19.285 6.737 19.249 6.671 19.213 C 6.605 19.178 6.514 19.128 6.469 19.102 C 6.424 19.077 6.355 19.038 6.316 19.016 C 6.277 18.994 6.192 18.944 6.126 18.905 C 5.993 18.826 6.01 18.836 5.537 18.565 C 5.351 18.459 5.112 18.322 5.005 18.261 C 4.899 18.199 4.809 18.149 4.806 18.149 C 4.802 18.149 4.699 18.089 4.575 18.016 C 4.451 17.943 4.32 17.867 4.284 17.847 C 4.218 17.81 3.271 17.269 3.15 17.199 C 3.114 17.178 2.884 17.047 2.638 16.908 C 2.392 16.768 2.157 16.634 2.115 16.61 C 2.073 16.586 1.979 16.534 1.905 16.494 C 1.832 16.454 1.756 16.403 1.736 16.382 C 1.703 16.346 1.701 16.075 1.706 12.966 L 1.711 9.59 L 1.886 9.49 C 1.982 9.435 2.251 9.28 2.485 9.145 C 2.719 9.01 2.964 8.871 3.03 8.836 C 3.096 8.8 3.16 8.764 3.172 8.755 C 3.184 8.746 3.228 8.72 3.27 8.696 C 3.312 8.673 3.434 8.603 3.542 8.54 C 3.65 8.478 3.792 8.397 3.858 8.361 C 3.924 8.325 4.004 8.278 4.036 8.256 C 4.068 8.234 4.101 8.216 4.109 8.216 C 4.117 8.216 4.15 8.198 4.182 8.176 C 4.214 8.154 4.294 8.107 4.36 8.071 C 4.426 8.036 4.637 7.916 4.828 7.805 C 5.139 7.626 5.563 7.383 5.777 7.26 C 5.819 7.236 5.907 7.187 5.973 7.152 C 6.039 7.116 6.119 7.069 6.151 7.047 C 6.182 7.025 6.214 7.007 6.221 7.007 C 6.228 7.007 6.315 6.959 6.414 6.901 C 6.695 6.736 7.388 6.338 7.52 6.266 C 7.586 6.23 7.704 6.161 7.782 6.114 C 7.982 5.992 8.024 5.996 8.316 6.169 C 8.448 6.247 8.816 6.459 9.134 6.64 C 9.82 7.032 9.831 7.038 9.929 7.093 C 9.971 7.117 10.037 7.155 10.076 7.177 C 10.216 7.257 10.827 7.608 11.03 7.724 C 11.144 7.79 11.281 7.867 11.335 7.897 C 11.389 7.927 11.482 7.98 11.542 8.016 C 11.76 8.146 12.046 8.311 12.163 8.374 C 12.229 8.41 12.352 8.48 12.436 8.53 C 12.569 8.609 12.712 8.69 13.014 8.858 C 13.056 8.882 13.213 8.972 13.363 9.058 C 13.687 9.246 13.701 9.253 14 9.425 L 14.234 9.559 L 14.234 16.46 L 14.181 16.494 C 14.152 16.513 14.093 16.548 14.05 16.572 C 13.908 16.652 13.81 16.708 13.75 16.743 C 13.718 16.762 13.546 16.861 13.369 16.964 C 13.191 17.066 12.909 17.228 12.741 17.325 C 12.573 17.422 12.419 17.501 12.399 17.501 C 12.378 17.501 12.329 17.483 12.29 17.461 C 12.25 17.438 12.037 17.315 11.815 17.187 C 11.593 17.06 11.38 16.937 11.341 16.915 C 11.268 16.874 11.17 16.819 11.046 16.749 C 11.007 16.727 10.924 16.678 10.86 16.641 C 10.797 16.603 10.742 16.573 10.738 16.573 C 10.734 16.573 10.616 16.505 10.476 16.422 C 10.336 16.339 10.216 16.271 10.209 16.271 C 10.203 16.271 10.171 16.253 10.14 16.231 C 10.108 16.209 10.028 16.161 9.962 16.126 C 9.85 16.065 9.547 15.885 9.528 15.869 C 9.502 15.846 9.643 15.75 9.973 15.567 C 9.997 15.554 10.051 15.523 10.093 15.499 C 10.135 15.475 10.301 15.38 10.463 15.288 C 10.938 15.018 11.301 14.799 11.319 14.772 C 11.327 14.759 11.335 13.892 11.335 12.846 C 11.335 11.061 11.333 10.942 11.297 10.91 C 11.263 10.88 11.166 10.821 10.954 10.699 C 10.918 10.679 10.8 10.611 10.692 10.548 C 10.321 10.334 9.99 10.144 9.853 10.068 C 9.799 10.038 9.687 9.973 9.605 9.923 C 9.522 9.873 9.422 9.813 9.381 9.791 C 9.341 9.768 9.276 9.731 9.237 9.709 C 9.198 9.687 9.034 9.593 8.872 9.501 C 8.71 9.409 8.507 9.291 8.42 9.239 C 8.333 9.187 8.259 9.145 8.254 9.145 C 8.249 9.145 8.188 9.111 8.118 9.069 C 8.049 9.028 7.979 8.994 7.963 8.994 C 7.936 8.994 7.4 9.292 7.07 9.491 C 6.992 9.538 6.925 9.577 6.921 9.577 C 6.917 9.577 6.813 9.636 6.689 9.709 C 6.565 9.782 6.431 9.86 6.392 9.882 C 6.085 10.055 5.979 10.116 5.482 10.403 C 4.699 10.856 4.6 10.919 4.597 10.966 C 4.59 11.139 4.605 14.598 4.614 14.621 C 4.623 14.644 4.753 14.724 5.171 14.964 C 5.192 14.976 5.524 15.166 5.91 15.385 C 6.296 15.605 6.647 15.805 6.69 15.831 C 6.945 15.979 7.176 16.112 7.281 16.169 C 7.347 16.204 7.41 16.241 7.422 16.25 C 7.434 16.259 7.481 16.286 7.526 16.311 C 7.571 16.336 7.642 16.376 7.684 16.4 C 7.726 16.424 7.795 16.463 7.837 16.486 C 7.879 16.51 7.947 16.549 7.989 16.573 C 8.125 16.65 8.204 16.695 8.403 16.81 C 8.603 16.926 8.681 16.971 8.818 17.048 C 8.859 17.072 8.928 17.111 8.97 17.134 C 9.012 17.158 9.081 17.197 9.123 17.221 C 9.165 17.244 9.231 17.282 9.27 17.305 C 9.353 17.353 10.113 17.789 10.223 17.853 C 10.265 17.877 10.354 17.926 10.42 17.961 C 10.486 17.997 10.549 18.033 10.561 18.042 C 10.573 18.051 10.618 18.077 10.659 18.101 C 10.701 18.125 10.858 18.214 11.008 18.3 C 11.326 18.483 11.395 18.522 11.499 18.581 C 11.541 18.605 11.609 18.644 11.651 18.667 C 11.693 18.691 11.762 18.73 11.804 18.754 C 11.846 18.778 11.917 18.818 11.962 18.844 C 12.007 18.869 12.063 18.901 12.087 18.914 C 12.351 19.059 12.608 19.222 12.643 19.266 C 12.755 19.407 12.752 19.332 12.752 22.287 L 12.752 25.035 L 12.681 25.087 C 12.594 25.15 12.259 25.34 12.235 25.339 C 12.226 25.339 12.041 25.239 11.826 25.116 Z M 2.409 7.238 C 2.385 7.224 2.341 7.196 2.311 7.177 C 2.281 7.157 2.207 7.115 2.147 7.082 C 1.897 6.946 1.745 6.854 1.73 6.829 C 1.721 6.815 1.711 5.286 1.708 3.431 C 1.703 0.366 1.706 0.055 1.737 0.029 C 1.764 0.007 1.901 0.001 2.336 0 C 2.815 0 2.904 0.005 2.922 0.032 C 2.934 0.052 2.942 1.218 2.943 3.09 C 2.943 5.944 2.945 6.117 2.981 6.148 C 3.002 6.166 3.162 6.261 3.335 6.359 C 3.509 6.456 3.666 6.55 3.684 6.566 C 3.724 6.605 3.715 6.612 3.281 6.858 C 3.101 6.96 2.867 7.093 2.762 7.155 C 2.567 7.267 2.49 7.286 2.409 7.238 Z M 13.394 7.247 C 13.383 7.236 13.339 7.208 13.297 7.184 C 13.255 7.161 13.064 7.052 12.872 6.942 C 12.68 6.832 12.493 6.725 12.456 6.704 C 12.324 6.629 12.295 6.608 12.295 6.586 C 12.295 6.574 12.444 6.482 12.625 6.381 C 12.807 6.28 12.978 6.18 13.006 6.158 L 13.057 6.119 L 13.057 3.089 C 13.057 0.621 13.063 0.055 13.086 0.036 C 13.117 0.01 14.215 -0.004 14.255 0.021 C 14.291 0.043 14.287 6.822 14.251 6.851 C 14.213 6.882 13.688 7.18 13.671 7.18 C 13.663 7.181 13.632 7.2 13.602 7.223 C 13.545 7.267 13.43 7.28 13.394 7.247 Z"
        fill="#ffa800"
        stroke-width="1"/>
    <path
        id="path_1"
        d="M 39.059 31.938 C 39.493 31.875 39.669 32.024 39.797 32.389 C 40.329 33.922 40.901 35.442 41.631 37.008 C 42.025 35.995 42.428 34.985 42.811 33.968 C 43.018 33.412 43.161 32.831 43.397 32.29 C 43.469 32.126 43.742 32.029 43.94 31.946 C 44.058 31.897 44.211 31.938 44.35 31.938 C 46.201 31.938 46.196 31.939 46.786 33.649 C 47.173 34.77 47.575 35.887 48.046 37.221 C 48.319 36.585 48.545 36.111 48.729 35.622 C 49.11 34.616 49.465 33.599 49.839 32.59 C 49.889 32.459 49.994 32.244 50.077 32.243 C 51.024 32.218 51.973 32.226 53.025 32.226 C 52.459 33.77 51.946 35.182 51.425 36.589 C 50.716 38.506 49.975 40.411 49.311 42.344 C 49.178 42.732 49.01 42.778 48.693 42.774 C 48.144 42.767 47.594 42.771 47.008 42.771 C 46.434 41.161 45.863 39.553 45.287 37.947 C 45.242 37.824 45.183 37.701 45.105 37.594 C 45.023 37.48 44.913 37.389 44.814 37.286 C 44.703 37.407 44.545 37.508 44.489 37.65 C 44.281 38.157 44.103 38.678 43.92 39.196 C 43.549 40.252 43.198 41.317 42.794 42.361 C 42.725 42.542 42.435 42.745 42.238 42.754 C 40.477 42.843 40.514 42.817 39.913 41.139 C 38.854 38.183 37.744 35.245 36.658 32.299 C 36.627 32.218 36.629 32.125 36.6 31.938 Z M 69.661 17.806 C 69.656 18.699 69.76 19.562 69.11 20.22 C 68.763 20.571 68.346 20.852 67.918 21.2 C 68.417 22.275 70.051 22.847 69.599 24.532 C 68.769 24.532 67.883 24.641 67.048 24.485 C 66.636 24.408 66.289 23.866 65.961 23.49 C 65.375 22.816 64.846 22.094 64.252 21.426 C 64.098 21.251 63.801 21.133 63.561 21.118 C 62.923 21.076 62.278 21.104 61.581 21.104 L 61.581 24.484 L 58.833 24.484 L 58.833 13.728 C 58.989 13.72 59.184 13.699 59.381 13.699 C 61.996 13.698 64.612 13.732 67.225 13.682 C 68.389 13.66 69.671 14.691 69.661 16.093 C 69.659 16.642 69.661 17.191 69.661 17.806 M 61.547 18.261 L 66.74 18.261 L 66.74 16.608 L 61.54 16.608 C 61.54 17.133 61.54 17.63 61.547 18.261 Z M 70.763 15.209 L 70.763 13.699 C 71.629 13.699 72.469 13.681 73.307 13.714 C 73.472 13.721 73.66 13.897 73.787 14.041 C 74.66 15.039 75.57 16.012 76.361 17.072 C 76.719 17.55 76.903 17.432 77.175 17.109 C 77.982 16.15 78.788 15.189 79.572 14.209 C 79.843 13.871 80.111 13.657 80.586 13.687 C 81.316 13.731 82.052 13.698 82.831 13.698 L 82.831 24.485 L 80.01 24.485 L 80.01 18.664 C 79.943 18.624 79.875 18.584 79.807 18.543 L 76.769 22.06 L 73.712 18.451 L 73.568 18.5 L 73.568 24.492 L 70.763 24.492 Z M 56.03 13.698 L 57.643 13.698 L 57.643 16.554 L 50.565 16.554 L 50.565 17.651 L 56.267 17.651 L 56.267 20.532 L 50.564 20.532 L 50.564 21.629 L 57.644 21.629 L 57.644 24.494 L 47.673 24.494 L 47.673 13.698 Z M 104.079 13.698 L 108.996 13.698 L 108.996 16.555 L 101.915 16.555 L 101.915 17.652 L 107.619 17.652 L 107.619 20.532 L 101.915 20.532 L 101.915 21.629 L 108.996 21.629 L 108.996 24.494 L 99.024 24.494 L 99.024 13.698 Z M 53.447 42.767 C 53.346 42.548 53.284 42.333 53.282 42.118 C 53.275 39.538 53.278 36.957 53.278 34.376 C 53.28 32.866 54.218 31.938 55.739 31.938 C 57.826 31.938 59.914 31.999 61.997 31.91 C 62.955 31.87 64.164 33.019 64.159 34.048 C 64.145 36.923 64.155 39.8 64.155 42.724 L 61.304 42.724 L 61.304 39.529 L 56.213 39.529 L 56.213 42.771 C 55.279 42.771 54.396 42.771 53.447 42.767 M 59.677 34.68 L 56.21 34.68 L 56.21 36.56 L 61.222 36.56 L 61.222 34.68 Z M 88.679 31.938 L 98.125 31.938 L 98.125 34.669 L 90.896 34.669 L 90.896 35.904 L 96.749 35.904 L 96.749 38.647 L 90.894 38.647 L 90.894 39.882 L 98.126 39.882 L 98.126 42.739 L 88.109 42.739 L 88.109 40.968 C 88.109 38.135 88.116 35.301 88.101 32.467 C 88.098 32.071 88.16 31.848 88.679 31.938 Z M 75.025 39.892 L 76.228 39.892 L 76.228 42.731 L 65.435 42.731 L 65.435 31.842 L 68.258 31.842 L 68.258 39.892 Z M 80.277 39.892 L 87.523 39.892 L 87.523 42.738 L 76.717 42.738 L 76.717 31.835 L 79.561 31.835 L 79.561 39.892 Z M 43.926 16.578 L 42.985 16.578 L 42.985 24.489 L 40.093 24.489 L 40.093 16.609 L 36.112 16.609 L 36.112 13.741 L 46.902 13.741 L 46.902 16.578 Z M 94.305 18.362 L 94.305 24.492 L 91.438 24.492 L 91.438 16.602 L 87.459 16.602 L 87.459 13.736 L 98.257 13.736 L 98.257 16.555 L 94.305 16.555 Z M 99.012 31.938 L 109.554 31.938 L 109.554 34.674 L 105.6 34.674 L 105.6 42.741 L 102.708 42.741 L 102.708 34.686 L 98.71 34.686 C 98.71 33.817 98.703 33 98.721 32.184 C 98.722 32.101 98.868 32.019 99.012 31.938 Z M 83.841 20.418 L 83.841 13.738 L 86.693 13.738 L 86.693 24.492 L 83.841 24.492 Z"
        fill="#ffffff"
        stroke-width="1"/>
</svg>
