<?xml version="1.0" encoding="UTF-8" standalone="no"?>
<svg
   viewBox="0 0 110 43"
   id="vector"
   version="1.1"
   sodipodi:docname="HeaderLogo_latest3.svg"
   inkscape:export-filename="HeaderLogo_latest3.svg"
   inkscape:export-xdpi="96"
   inkscape:export-ydpi="96"
   inkscape:version="1.4 (e7c3feb, 2024-10-09)"
   xmlns:inkscape="http://www.inkscape.org/namespaces/inkscape"
   xmlns:sodipodi="http://sodipodi.sourceforge.net/DTD/sodipodi-0.dtd"
   xmlns="http://www.w3.org/2000/svg"
   xmlns:svg="http://www.w3.org/2000/svg">
  <defs
     id="defs1" />
  <sodipodi:namedview
     id="namedview1"
     pagecolor="#ffffff"
     bordercolor="#000000"
     borderopacity="0.25"
     inkscape:showpageshadow="false"
     inkscape:pageopacity="0.0"
     inkscape:pagecheckerboard="0"
     inkscape:deskcolor="#d1d1d1"
     showborder="false"
     inkscape:zoom="16.536364"
     inkscape:cx="23.161077"
     inkscape:cy="21.498075"
     inkscape:window-width="1920"
     inkscape:window-height="1066"
     inkscape:window-x="0"
     inkscape:window-y="27"
     inkscape:window-maximized="1"
     inkscape:current-layer="vector" />
  <path
     id="path"
     d="m 7.5288312,42.612738 c -0.045,-0.0263 -0.095625,-0.05351 -0.1125,-0.06077 -0.016875,-0.0063 -0.054375,-0.02812 -0.083437,-0.04716 -0.028125,-0.01905 -0.308438,-0.176859 -0.6225005,-0.351905 -0.315,-0.174139 -0.59625,-0.331045 -0.6271875,-0.349184 -0.03,-0.01723 -0.2221875,-0.124256 -0.4265625,-0.23672 -0.204375,-0.113372 -0.40875,-0.226743 -0.455625,-0.253045 -0.084375,-0.04626 -0.159375,-0.08798 -0.283125,-0.156 -0.036562,-0.01995 -0.1678125,-0.09342 -0.2915625,-0.163255 -0.20625,-0.116999 -0.530625,-0.297487 -0.705,-0.392719 -0.039375,-0.02086 -0.094688,-0.05351 -0.1228125,-0.07165 -0.028125,-0.01814 -0.07875,-0.04535 -0.1125,-0.06077 -0.03375,-0.01542 -0.083438,-0.04263 -0.1115625,-0.05986 -0.028125,-0.01814 -0.08625,-0.0517 -0.1284375,-0.07437 -0.090938,-0.04898 -0.1303125,-0.07165 -0.465,-0.256673 -0.3290625,-0.184115 -0.316875,-0.176859 -0.735,-0.411765 -0.46125,-0.258487 -0.4153125,-0.232185 -0.8896875,-0.4943 -0.2240625,-0.123348 -0.50062501,-0.277534 -0.61218751,-0.341022 -0.1125,-0.06439 -0.2596875,-0.146022 -0.3271875,-0.182301 -0.0675,-0.03628 -0.1528125,-0.08616 -0.189375,-0.112465 l -0.0665625,-0.04716 9.375e-4,-4.174793 V 30.13915 l 0.0721875,-0.04444 c 0.039375,-0.02449 0.3909375,-0.222209 0.78093751,-0.438975 0.39,-0.216766 0.7875,-0.438068 0.883125,-0.491579 0.174375,-0.09795 0.2446875,-0.136953 0.3778125,-0.209511 0.0975,-0.05351 0.163125,-0.08979 0.4603125,-0.254859 0.140625,-0.078 0.2840625,-0.157813 0.31875,-0.176859 0.035625,-0.01905 0.1228125,-0.06893 0.195,-0.110651 0.24,-0.13786 0.2325,-0.136046 0.31875,-0.08979 0.042188,0.02177 0.1096875,0.05805 0.15,0.07981 0.04125,0.02086 0.1415625,0.078 0.225,0.12607 0.15375,0.08888 0.36375,0.204975 0.5296875,0.293859 0.050625,0.0263 0.174375,0.09523 0.275625,0.151464 0.1865625,0.105209 0.260625,0.145115 0.388125,0.215859 0.039375,0.02086 0.10125,0.05533 0.1378125,0.07619 0.036562,0.01995 0.2325,0.126976 0.435,0.237627 0.2015625,0.11065 0.3740625,0.210417 0.3815625,0.221301 0.015937,0.02358 -0.045,0.06621 -0.27,0.189557 -0.2521875,0.138767 -0.354375,0.195906 -0.418125,0.233092 -0.03375,0.01905 -0.096563,0.05442 -0.13875,0.07709 -0.1809375,0.09977 -0.2146875,0.117906 -0.3215625,0.17958 -0.1059375,0.05986 -0.1378125,0.078 -0.316875,0.175953 -0.039375,0.02177 -0.10125,0.05532 -0.1378125,0.07528 -0.036562,0.01995 -0.2690625,0.149651 -0.515625,0.287511 -0.2475,0.138766 -0.5653125,0.315626 -0.705,0.392719 l -0.2559375,0.141487 v 5.219626 l 0.061875,0.03356 c 0.07125,0.039 0.6290625,0.349184 1.1953125,0.66481 0.219375,0.121535 0.5503125,0.30565 0.7359375,0.407231 0.1846875,0.102488 0.405,0.224929 0.4875,0.272999 0.083437,0.04807 0.18,0.103394 0.2146875,0.122441 0.034688,0.01905 0.14625,0.08072 0.2475,0.13786 0.1875,0.104301 0.260625,0.145115 0.388125,0.214952 0.039375,0.02177 0.1040625,0.05714 0.1434375,0.07891 0.039375,0.02086 0.1059375,0.05805 0.148125,0.08072 0.042187,0.02358 0.094688,0.0526 0.1171875,0.06439 0.0225,0.01179 0.079687,0.04626 0.1275,0.07528 0.047813,0.02993 0.091875,0.05351 0.099375,0.05351 0.00656,0 0.036563,0.01633 0.066562,0.03719 0.03,0.01995 0.08625,0.05442 0.125625,0.07528 0.039375,0.02177 0.16125,0.08888 0.27,0.14965 0.10875,0.06077 0.208125,0.109744 0.2203125,0.109744 0.013125,0 0.1115625,-0.04898 0.22125,-0.109744 0.2053125,-0.114278 0.2840625,-0.15872 0.3975,-0.220394 0.036563,-0.01995 0.11625,-0.0653 0.178125,-0.100674 0.061876,-0.03537 0.1406255,-0.07891 0.1743755,-0.09795 0.03375,-0.01905 0.1434375,-0.08072 0.2446875,-0.136953 0.181875,-0.101581 0.2540625,-0.141487 0.3834375,-0.212231 0.036563,-0.02086 0.1171875,-0.0653 0.1790625,-0.100674 0.105,-0.06077 0.1378125,-0.07891 0.316875,-0.17686 0.19875,-0.108836 0.8334378,-0.461649 1.2159378,-0.674787 0.195938,-0.110651 0.51375,-0.286603 0.705,-0.392719 0.190313,-0.105209 0.411563,-0.228557 0.490313,-0.272999 l 0.142499,-0.08163 0.0056,-2.511407 0.0047,-2.510499 -0.08719,-0.04898 c -0.04781,-0.0263 -0.1875,-0.106116 -0.310313,-0.175953 -0.122812,-0.06984 -0.225937,-0.126976 -0.22875,-0.126976 -0.0038,0 -0.05438,-0.02721 -0.113437,-0.06077 -0.124688,-0.07165 -0.85875,-0.477974 -1.089375,-0.604951 -0.03937,-0.02177 -0.104063,-0.05623 -0.143438,-0.078 -0.10125,-0.05533 -0.169687,-0.09342 -0.4593753,-0.254859 -0.140625,-0.078 -0.3065625,-0.168697 -0.3684375,-0.201348 -0.061875,-0.03265 -0.1359375,-0.07528 -0.1659375,-0.09523 -0.03,-0.01995 -0.06,-0.03628 -0.065625,-0.03628 -0.00563,0 -0.06,-0.02721 -0.12,-0.06167 -0.059062,-0.03356 -0.135,-0.07619 -0.16875,-0.09523 -0.033734,-0.01905 -0.2727965,-0.150563 -0.5296715,-0.292957 -0.2578125,-0.142395 -0.5034375,-0.280255 -0.5465625,-0.30565 -0.043125,-0.0263 -0.0825,-0.04716 -0.089062,-0.04716 -0.00563,0 -0.045,-0.02086 -0.087188,-0.04626 -0.042187,-0.02539 -0.1171875,-0.06802 -0.1678125,-0.09523 -0.077813,-0.04172 -0.2428125,-0.133325 -0.8128125,-0.448952 -0.036563,-0.01995 -0.098438,-0.05442 -0.1378125,-0.07528 -0.1771875,-0.09705 -0.2109375,-0.116093 -0.3121875,-0.174139 -0.06,-0.03356 -0.1125,-0.06167 -0.11625,-0.06167 -0.00469,0 -0.081562,-0.04263 -0.170625,-0.09523 -0.089063,-0.0526 -0.211875,-0.121535 -0.271875,-0.154186 -0.060937,-0.03174 -0.144375,-0.07709 -0.1865625,-0.09977 -0.042187,-0.02358 -0.106875,-0.05805 -0.1434375,-0.07891 -0.036562,-0.01995 -0.114375,-0.06349 -0.174375,-0.09795 -0.059063,-0.03356 -0.1115625,-0.06077 -0.1153125,-0.06077 -0.00375,0 -0.1284375,-0.07074 -0.2775,-0.156906 -0.148125,-0.08616 -0.2728125,-0.156907 -0.275625,-0.156907 -0.00375,0 -0.12,-0.06258 -0.25875,-0.139673 -0.13875,-0.07709 -0.3440625,-0.190463 -0.4565625,-0.252138 -0.61875,-0.337393 -0.6646875,-0.369137 -0.71625,-0.487044 -0.025313,-0.05532 -0.029063,-0.4553 -0.029063,-2.588499 v -2.523196 l 0.065625,-0.04626 c 0.036562,-0.02539 0.125625,-0.07619 0.1978125,-0.111558 l 0.1321875,-0.06621 0.092812,0.04626 c 0.051563,0.02539 0.11625,0.06077 0.144375,0.07891 0.042188,0.02721 0.4190625,0.238533 0.7715625,0.432625 0.036562,0.01995 0.096563,0.0526 0.133125,0.07256 0.036562,0.01995 0.3515625,0.193185 0.699375,0.383649 0.34875,0.191372 0.6496875,0.361882 0.669375,0.380022 0.03375,0.03174 0.025312,0.039 -0.151875,0.143301 -0.133125,0.07709 -0.19125,0.122442 -0.1996875,0.156 -0.00563,0.02539 -0.00844,0.511532 -0.00469,1.080204 l 0.00563,1.033041 0.19875,0.124255 c 0.1096875,0.06802 0.2540625,0.152372 0.3215625,0.187744 0.0675,0.03537 0.1359375,0.07437 0.1528125,0.08616 0.016875,0.0127 0.0525,0.03356 0.079687,0.04807 0.027188,0.01451 0.079688,0.04353 0.1171875,0.0644 0.038438,0.01995 0.103125,0.05533 0.1453125,0.078 0.042187,0.02358 0.155625,0.08616 0.2503125,0.140581 0.215625,0.121534 0.286875,0.161441 0.429375,0.235813 0.061875,0.03174 0.121875,0.0653 0.133125,0.07256 0.01125,0.0082 0.054375,0.03356 0.096562,0.05623 0.088125,0.04716 0.1903125,0.103394 0.286875,0.156906 0.036563,0.01995 0.245625,0.135139 0.465,0.256673 0.2184375,0.120627 0.4275,0.23672 0.4640625,0.256673 0.036562,0.02086 0.096562,0.05351 0.133125,0.07347 0.036563,0.01995 0.1040625,0.05714 0.1509375,0.08344 0.045938,0.0254 0.2803125,0.155093 0.52125,0.287511 0.24,0.133324 0.4499998,0.249417 0.4668748,0.259394 0.01688,0.01 0.08156,0.04535 0.143438,0.07981 0.06188,0.03356 0.139688,0.07709 0.173438,0.09614 0.03375,0.01814 0.209063,0.115186 0.388125,0.214953 0.18,0.09977 0.357188,0.19772 0.39375,0.217673 0.03656,0.01995 0.09844,0.05442 0.137813,0.07619 0.03937,0.02086 0.104062,0.05623 0.143437,0.078 0.03937,0.02177 0.103125,0.05714 0.1425,0.078 0.0975,0.05351 0.162188,0.08979 0.460312,0.254859 0.140625,0.078 0.285001,0.15872 0.321563,0.178674 0.03656,0.01995 0.09656,0.05351 0.133125,0.07346 0.03656,0.01995 0.18,0.09977 0.31875,0.17686 0.13875,0.07619 0.255937,0.138767 0.261563,0.138767 0.0047,0 0.03375,0.01723 0.06375,0.03719 0.07219,0.04716 0.410626,0.236719 1.101563,0.615834 0.657187,0.360975 0.699375,0.385463 0.804375,0.47616 l 0.08062,0.07073 v 4.087724 c 0,3.868237 -9.37e-4,4.089538 -0.03562,4.118561 -0.01969,0.01633 -0.14625,0.0916 -0.28125,0.165976 -0.233438,0.129697 -0.399375,0.222208 -1.25625,0.70109 -0.208125,0.116092 -0.516562,0.28751 -0.684375,0.380928 -0.16875,0.09432 -0.421875,0.234906 -0.5625,0.312905 -0.27,0.150558 -0.346875,0.193185 -0.454688,0.252139 -0.03656,0.01995 -0.115312,0.06439 -0.174374,0.09795 -0.06,0.03356 -0.114376,0.06167 -0.120938,0.06167 -0.0066,0 -0.02719,0.01179 -0.045,0.02721 -0.01781,0.01451 -0.07406,0.04807 -0.124687,0.07528 -0.05063,0.02721 -0.174375,0.09523 -0.275625,0.152371 -0.282193,0.15872 -0.719068,0.401789 -0.878443,0.489765 -0.103125,0.05623 -0.7912503,0.438975 -1.0218753,0.567765 -0.03375,0.01905 -0.2090625,0.116092 -0.388125,0.214952 -0.331875,0.184115 -0.7340625,0.409045 -0.9196875,0.51516 -0.2671875,0.153279 -0.2803125,0.155999 -0.40875,0.08072 z M 11.247894,26.440515 c -0.2025,-0.11065 -0.43125,-0.238533 -0.508125,-0.282975 -0.07687,-0.04535 -0.143437,-0.08253 -0.147187,-0.08253 -0.0038,0 -0.05625,-0.02721 -0.115313,-0.06077 -0.121875,-0.06984 -0.110625,-0.06349 -0.5578128,-0.311091 -0.18,-0.09977 -0.3778125,-0.207697 -0.4396875,-0.240348 -0.061875,-0.03265 -0.136875,-0.07528 -0.1659375,-0.09523 -0.03,-0.01995 -0.062812,-0.03628 -0.072188,-0.03628 -0.036562,0 -0.1284375,-0.08888 -0.114375,-0.109743 0.00844,-0.01179 0.089062,-0.05986 0.178125,-0.107023 0.2634375,-0.13786 0.23625,0 0.23625,-1.194483 0,-0.627624 -0.0075,-1.052994 -0.019687,-1.074762 -0.015937,-0.02903 -0.1621875,-0.125165 -0.345,-0.226746 -0.01875,-0.01088 -0.1125,-0.06439 -0.208125,-0.11972 -0.095625,-0.05442 -0.2146875,-0.121534 -0.2653125,-0.148744 -0.050625,-0.02721 -0.174375,-0.09614 -0.275625,-0.152371 -0.27375,-0.153278 -0.285,-0.159627 -0.5728125,-0.31744 -0.14625,-0.07981 -0.3159375,-0.172325 -0.3778125,-0.205883 -0.061875,-0.03265 -0.226875,-0.123348 -0.3675,-0.201348 -0.2765625,-0.154185 -0.3478125,-0.193185 -0.465,-0.256673 -0.042187,-0.02267 -0.08625,-0.04807 -0.0975,-0.05623 -0.01125,-0.0082 -0.070312,-0.04081 -0.1321875,-0.07347 -0.061875,-0.03174 -0.1471875,-0.07709 -0.189375,-0.100674 -0.042188,-0.02267 -0.106875,-0.05805 -0.1434375,-0.078 -0.036563,-0.01995 -0.11625,-0.0653 -0.178125,-0.100674 -0.1246875,-0.07165 -0.10875,-0.06258 -0.5521875,-0.308371 -0.174375,-0.09614 -0.3984375,-0.220394 -0.49875,-0.275719 -0.099375,-0.05623 -0.18375,-0.101581 -0.1865625,-0.101581 -0.00375,0 -0.1003125,-0.05442 -0.2165625,-0.120628 -0.11625,-0.06621 -0.2390625,-0.135139 -0.2728125,-0.153278 -0.061875,-0.03356 -0.9496875,-0.52423 -1.063125,-0.587718 -0.03375,-0.01905 -0.249375,-0.13786 -0.48,-0.263929 -0.230625,-0.126976 -0.4509375,-0.24851 -0.4903125,-0.270278 -0.039375,-0.02177 -0.1275,-0.06893 -0.196875,-0.105208 -0.068437,-0.03628 -0.1396875,-0.08254 -0.1584375,-0.101581 -0.030938,-0.03265 -0.032812,-0.278441 -0.028125,-3.098218 l 0.00469,-3.061938 0.1640625,-0.0907 c 0.09,-0.04988 0.3421875,-0.190464 0.5615625,-0.312906 0.219375,-0.122441 0.4490625,-0.24851 0.5109375,-0.280254 0.061875,-0.03265 0.121875,-0.0653 0.133125,-0.07346 0.01125,-0.0082 0.0525,-0.03174 0.091875,-0.05351 0.039375,-0.02086 0.15375,-0.08435 0.255,-0.141488 0.10125,-0.05623 0.234375,-0.129697 0.29625,-0.162348 0.061875,-0.03265 0.136875,-0.07528 0.166875,-0.09523 0.03,-0.01995 0.060938,-0.03628 0.068437,-0.03628 0.0075,0 0.038438,-0.01633 0.068437,-0.03628 0.03,-0.01995 0.105,-0.06258 0.166875,-0.09523 0.061875,-0.03174 0.2596875,-0.140581 0.43875,-0.241255 0.2915625,-0.162348 0.6890625,-0.382742 0.8896875,-0.4943 0.039375,-0.02177 0.121875,-0.06621 0.18375,-0.09795 0.061875,-0.03265 0.136875,-0.07528 0.166875,-0.09523 0.029063,-0.01995 0.059062,-0.03628 0.065625,-0.03628 0.00656,0 0.088125,-0.04354 0.1809375,-0.09614 0.263436,-0.149658 0.9131235,-0.5106328 1.0368735,-0.5759348 0.061875,-0.032651 0.1725,-0.095232 0.245625,-0.1378598 0.1875,-0.1106506 0.226875,-0.1070227 0.500625,0.049883 0.12375,0.070744 0.46875,0.2630219 0.766875,0.4271836 0.643125,0.355534 0.6534375,0.360975 0.7453125,0.410859 0.039375,0.02177 0.10125,0.05623 0.1378125,0.07619 0.13125,0.07256 0.7040633,0.390905 0.8943753,0.496114 0.106875,0.05986 0.235313,0.129697 0.285938,0.156906 0.05062,0.02721 0.137812,0.07528 0.194062,0.10793 0.204375,0.117906 0.4725,0.267556 0.582188,0.324696 0.06188,0.03265 0.177187,0.09614 0.255937,0.141487 0.124688,0.07165 0.25875,0.145116 0.541875,0.297487 0.03937,0.02177 0.186563,0.103395 0.327188,0.181395 0.30375,0.17051 0.316875,0.176859 0.597187,0.332858 l 0.219375,0.121535 v 6.259015 l -0.04969,0.03084 c -0.02719,0.01723 -0.0825,0.04898 -0.122813,0.07074 -0.133125,0.07256 -0.225,0.123349 -0.28125,0.155093 -0.03,0.01723 -0.19125,0.107022 -0.357187,0.20044 -0.166876,0.09251 -0.431251,0.239441 -0.58875,0.327417 -0.1575,0.08798 -0.301875,0.159628 -0.320626,0.159628 -0.01969,0 -0.06563,-0.01633 -0.102187,-0.03628 -0.0375,-0.02086 -0.237188,-0.132418 -0.445312,-0.248511 -0.208125,-0.115185 -0.407813,-0.226743 -0.444376,-0.246696 -0.06844,-0.03719 -0.160312,-0.08707 -0.276562,-0.150558 -0.03656,-0.01995 -0.114375,-0.06439 -0.174375,-0.09795 -0.05906,-0.03446 -0.110625,-0.06167 -0.114375,-0.06167 -0.0038,0 -0.114375,-0.06167 -0.2456253,-0.136952 -0.131247,-0.07528 -0.243747,-0.136957 -0.2503095,-0.136957 -0.00563,0 -0.035625,-0.01633 -0.064687,-0.03628 -0.03,-0.01995 -0.105,-0.06349 -0.166875,-0.09523 -0.105,-0.05533 -0.3890625,-0.218581 -0.406875,-0.233092 -0.024375,-0.02086 0.1078125,-0.10793 0.4171875,-0.273906 0.0225,-0.01179 0.073125,-0.03991 0.1125,-0.06167 0.039375,-0.02177 0.195,-0.10793 0.346875,-0.191371 0.4453133,-0.244883 0.7856253,-0.443509 0.8025003,-0.467998 0.0075,-0.01179 0.015,-0.798135 0.015,-1.746828 0,-1.618946 -0.0019,-1.726876 -0.03562,-1.755899 -0.03187,-0.02722 -0.122812,-0.08073 -0.321562,-0.191381 -0.03376,-0.01814 -0.144381,-0.07981 -0.245631,-0.136953 -0.3478128,-0.194092 -0.6581253,-0.366416 -0.7865628,-0.435346 -0.050625,-0.02721 -0.155625,-0.08616 -0.2325,-0.131511 -0.077812,-0.04535 -0.1715625,-0.09977 -0.21,-0.119721 -0.0375,-0.02086 -0.098438,-0.05442 -0.135,-0.07437 -0.036563,-0.01995 -0.1903125,-0.10521 -0.3421875,-0.188652 -0.151875,-0.08344 -0.3421875,-0.190464 -0.42375,-0.237626 -0.081562,-0.04716 -0.1509375,-0.08526 -0.155625,-0.08526 -0.00469,0 -0.061875,-0.03084 -0.1275,-0.06893 -0.064687,-0.03719 -0.1303125,-0.06802 -0.1453125,-0.06802 -0.025312,0 -0.5278125,0.270278 -0.8371875,0.450766 -0.073125,0.04263 -0.1359375,0.078 -0.1396875,0.078 -0.00375,0 -0.10125,0.05351 -0.2175,0.11972 -0.11625,0.06621 -0.241875,0.136953 -0.2784375,0.156906 -0.2878125,0.156906 -0.3871875,0.212231 -0.853125,0.472533 -0.7340625,0.410858 -0.826875,0.467997 -0.8296875,0.510625 -0.00656,0.156906 0.0075,3.294123 0.015937,3.314983 0.00844,0.02086 0.1303125,0.09342 0.5221875,0.311092 0.019687,0.01088 0.3309375,0.183208 0.6928125,0.381835 0.361875,0.199534 0.6909375,0.380929 0.73125,0.40451 0.2390625,0.134232 0.455625,0.254859 0.5540625,0.306557 0.061875,0.03174 0.1209375,0.0653 0.1321875,0.07346 0.01125,0.0082 0.055313,0.03265 0.0975,0.05533 0.042187,0.02267 0.10875,0.05895 0.148125,0.08072 0.039375,0.02177 0.1040625,0.05714 0.1434375,0.078 0.039375,0.02177 0.103125,0.05714 0.1425,0.07891 0.1275,0.06984 0.2015625,0.110651 0.388125,0.214953 0.1875,0.105209 0.260625,0.146022 0.3890625,0.215859 0.038437,0.02177 0.103125,0.05714 0.1425,0.078 0.039375,0.02177 0.1040625,0.05714 0.1434375,0.07891 0.039375,0.02086 0.10125,0.05533 0.1378125,0.07619 0.077812,0.04354 0.7903125,0.438975 0.8934375,0.497021 0.039375,0.02177 0.1228125,0.06621 0.1846875,0.09795 0.061875,0.03265 0.1209378,0.0653 0.1321878,0.07346 0.01125,0.0082 0.05344,0.03174 0.09187,0.05351 0.03937,0.02177 0.186563,0.102488 0.327188,0.180487 0.298125,0.165976 0.362812,0.201348 0.460312,0.25486 0.03937,0.02177 0.103125,0.05714 0.1425,0.078 0.03937,0.02177 0.104063,0.05714 0.143438,0.07891 0.03937,0.02177 0.105937,0.05805 0.148125,0.08163 0.04219,0.02267 0.09469,0.0517 0.117187,0.06349 0.2475,0.131511 0.488438,0.279348 0.52125,0.319255 0.105,0.127883 0.102188,0.05986 0.102188,2.739963 v 2.49236 l -0.06656,0.04716 c -0.08156,0.05714 -0.395625,0.229464 -0.418125,0.228557 -0.0084,0 -0.181875,-0.0907 -0.383437,-0.202255 z M 2.4194562,10.225665 c -0.0225,-0.0127 -0.06375,-0.03809 -0.091875,-0.05532 -0.028125,-0.01814 -0.0975,-0.05623 -0.15375,-0.08616 C 1.9394562,9.960829 1.7969562,9.877388 1.7828937,9.854714 1.7744537,9.842014 1.7650807,8.4552554 1.7622687,6.7728218 1.7575787,3.9929518 1.7603987,3.7108835 1.7894567,3.6873022 1.8147687,3.6673488 1.9432062,3.661907 2.3510187,3.661 c 0.4490625,0 0.5325,0.00453 0.549375,0.029023 0.01125,0.01814 0.01875,1.0756691 0.019688,2.7735212 0,2.5884988 0.00187,2.745405 0.035625,2.7735212 0.019687,0.016325 0.1696875,0.1024878 0.331875,0.1913711 0.163125,0.087976 0.3103125,0.1732317 0.3271875,0.1877433 0.0375,0.035372 0.029063,0.041721 -0.3778125,0.2648362 -0.16875,0.09251 -0.388125,0.213138 -0.4865625,0.26937 -0.1828125,0.101581 -0.255,0.118814 -0.330938,0.07528 z m 10.2984378,0.0082 c -0.01031,-0.01 -0.05156,-0.03537 -0.09094,-0.05714 -0.03937,-0.02086 -0.218438,-0.11972 -0.398438,-0.219487 -0.18,-0.09977 -0.355312,-0.196813 -0.39,-0.215859 -0.12375,-0.06802 -0.150937,-0.087069 -0.150937,-0.1070232 0,-0.010884 0.139687,-0.094325 0.309375,-0.1859293 0.170625,-0.091604 0.330937,-0.1823014 0.357187,-0.2022548 l 0.04781,-0.035372 v -2.748126 c 0,-2.2384075 0.0056,-2.7517538 0.02719,-2.7689863 0.02906,-0.023581 1.058438,-0.036279 1.095938,-0.013605 0.03375,0.019953 0.03,6.1683186 -0.0038,6.1946206 -0.03562,0.02812 -0.527813,0.298394 -0.54375,0.298394 -0.0075,9.07e-4 -0.03656,0.01814 -0.06469,0.039 -0.05344,0.03991 -0.16125,0.0517 -0.195,0.02177 z"
     fill="#ffa800"
     stroke-width="0.92211"
     style="stroke:#ffa800;stroke-width:0.322;stroke-dasharray:none;stroke-opacity:1" />
  <g
     id="group"
     transform="matrix(1.3857059,0,0,1.3857059,-13.928613,-15.332933)">
    <path
       id="path_1"
       d="m 37.976861,34.405737 c 0.301292,-0.04332 0.423542,0.05968 0.5121,0.313806 0.369637,1.064629 0.767188,2.120596 1.274475,3.208327 0.273377,-0.703656 0.553492,-1.405388 0.819168,-2.111932 0.144389,-0.386 0.243537,-0.789327 0.407178,-1.165702 0.05006,-0.113586 0.239686,-0.180968 0.377337,-0.238723 0.08182,-0.03369 0.188668,-0.0058 0.284928,-0.0058 1.286026,0 1.282176,9.63e-4 1.692241,1.188804 0.268564,0.778739 0.547716,1.55459 0.874998,2.481569 0.189631,-0.441831 0.346534,-0.771038 0.474559,-1.110834 0.264714,-0.698844 0.511138,-1.405388 0.771038,-2.106157 0.03465,-0.09145 0.107811,-0.240648 0.165567,-0.241611 0.657452,-0.01733 1.316829,-0.01155 2.047438,-0.01155 -0.392739,1.07233 -0.748899,2.053214 -1.110834,3.03121 -0.492848,1.331268 -1.007836,2.654835 -1.468919,3.997654 -0.09241,0.269527 -0.208883,0.301292 -0.429317,0.298405 -0.381188,-0.0048 -0.763338,-0.0019 -1.170515,-0.0019 -0.398514,-1.118534 -0.795103,-2.235144 -1.195542,-3.350791 -0.0308,-0.08567 -0.0722,-0.171342 -0.1261,-0.245461 -0.05679,-0.07893 -0.133801,-0.142464 -0.202145,-0.213696 -0.07701,0.08375 -0.186743,0.154015 -0.22621,0.252199 -0.144389,0.35231 -0.267601,0.714246 -0.394664,1.074256 -0.257975,0.733497 -0.501511,1.473732 -0.782589,2.198566 -0.04813,0.126099 -0.249312,0.266638 -0.386,0.273376 -1.223458,0.06161 -1.197468,0.04332 -1.615234,-1.122385 -0.735422,-2.053214 -1.50646,-4.093914 -2.261134,-6.14039 -0.02118,-0.05679 -0.02021,-0.121287 -0.04043,-0.251237 z m 21.257936,-9.816538 c -0.0039,0.619911 0.06834,1.219607 -0.383113,1.67684 -0.240648,0.243536 -0.530389,0.438943 -0.827831,0.680554 0.346534,0.746973 1.481433,1.144525 1.167627,2.31504 -0.576594,0 -1.191692,0.07508 -1.772136,-0.03273 -0.285891,-0.05391 -0.527502,-0.430279 -0.754674,-0.691143 -0.407178,-0.468783 -0.774889,-0.970295 -1.187842,-1.434265 -0.106848,-0.121287 -0.312843,-0.203108 -0.479372,-0.213696 -0.443756,-0.02888 -0.891362,-0.0096 -1.375547,-0.0096 v 2.347768 h -1.908825 v -7.471658 c 0.10781,-0.0058 0.243536,-0.02022 0.380225,-0.02022 1.816415,-9.62e-4 3.633794,0.0231 5.449247,-0.01155 0.808579,-0.0154 1.698979,0.700769 1.692241,1.674914 -0.0019,0.381188 0,0.762375 0,1.189767 m -5.636953,0.315731 h 3.607804 v -1.148375 h -3.612617 c 0,0.364823 0,0.710395 0.0048,1.148375 z m 6.402215,-2.119633 V 21.73609 c 0.601622,0 1.184954,-0.01251 1.767324,0.01059 0.114548,0.0048 0.245461,0.127062 0.333057,0.227172 0.606435,0.693068 1.238859,1.368809 1.788501,2.105194 0.248349,0.332095 0.376374,0.250275 0.565043,0.02599 0.561192,-0.666115 1.12046,-1.334156 1.665288,-2.01471 0.188669,-0.234873 0.374449,-0.383113 0.704619,-0.362898 0.507288,0.0308 1.018425,0.0077 1.559403,0.0077 v 7.493797 h -1.959842 v -4.043859 c -0.04621,-0.02792 -0.09337,-0.05583 -0.140539,-0.08375 l -2.110969,2.443065 -2.123484,-2.507558 -0.10011,0.03465 v 4.162258 h -1.948291 z m -10.234304,-1.05019 h 1.12046 v 1.983907 h -4.916932 v 0.762375 h 3.961076 v 2.001233 H 45.96832 v 0.762375 h 4.918858 v 1.989683 h -6.92683 v -7.499573 z m 33.377962,0 h 3.415285 v 1.984869 h -4.918857 v 0.762375 h 3.962039 v 2.000271 h -3.962039 v 0.762375 h 4.918857 V 29.23468 H 79.632173 V 21.735107 Z M 47.971479,41.928413 c -0.07027,-0.15209 -0.113586,-0.301292 -0.114549,-0.450494 -0.0048,-1.792351 -0.0029,-3.585665 -0.0029,-5.378016 9.62e-4,-1.049228 0.652639,-1.694166 1.709567,-1.694166 1.449668,0 2.900297,0.04235 4.347077,-0.01925 0.665153,-0.02792 1.505498,0.770076 1.501647,1.485284 -0.0096,1.997383 -0.0029,3.995729 -0.0029,6.026803 H 53.42939 V 39.67883 h -3.536572 v 2.25247 c -0.648789,0 -1.261962,0 -1.921339,-0.0029 m 4.327825,-5.617701 h -2.408411 v 1.30624 h 3.481704 v -1.30624 z m 20.146139,-1.904975 h 6.562006 v 1.897274 h -5.021855 v 0.857671 h 4.065999 v 1.905937 h -4.066962 v 0.857672 h 5.023781 v 1.98487 h -6.958596 v -1.230196 c 0,-1.968505 0.0048,-3.937011 -0.0058,-5.905517 -0.0019,-0.275302 0.04139,-0.430279 0.401402,-0.367711 z M 62.961,39.931016 h 0.835532 v 1.972356 h -7.497648 v -7.564067 h 1.960805 v 5.591711 z m 3.648233,0 h 5.033406 v 1.977169 h -7.506311 v -7.573693 h 1.975243 v 5.596524 z M 41.357493,23.73634 h -0.653602 v 5.495452 h -2.008934 v -5.474274 h -2.765534 v -1.992571 h 7.495723 v 1.971393 z m 34.996083,1.238859 v 4.258518 H 74.361968 V 23.752705 H 71.59836 v -1.990646 h 7.500536 v 1.957917 h -2.74532 z m 3.269934,9.430538 c 2.465204,0 4.883241,0 7.323418,0 v 1.901124 h -2.747245 v 5.603262 h -2.008934 v -5.595561 h -2.777085 c 0,-0.603547 -0.0048,-1.170515 0.0077,-1.737483 9.62e-4,-0.05776 0.102035,-0.114549 0.202146,-0.171342 z M 69.085026,26.40369 v -4.640668 h 1.981019 v 7.470695 h -1.981019 z"
       fill="#ffffff"
       stroke-width="0.962594"
       style="fill:#ffffff" />
  </g>
</svg>
