<svg width="127" height="34" viewBox="0 0 127 34" fill="none" xmlns="http://www.w3.org/2000/svg">
    <path
        d="M 26.068 27.846 C 26.393 26.931 26.741 26.014 27.119 25.076 C 27.456 24.885 27.766 24.722 28.063 24.537 C 28.121 24.501 28.15 24.38 28.151 24.298 C 28.159 23.792 28.159 23.287 28.152 22.781 C 28.151 22.673 28.113 22.565 28.091 22.457 C 28.661 20.958 29.23 19.459 29.803 17.962 C 29.836 17.874 29.903 17.798 29.973 17.704 C 29.994 20.19 30 22.688 29.999 25.186 C 29.999 25.633 29.649 25.826 29.321 26.013 C 28.247 26.628 27.168 27.233 26.068 27.846 Z M 1.847 11.624 C 1.709 12.045 1.584 12.472 1.429 12.888 C 1.035 13.947 0.629 15.002 0.223 16.057 C 0.181 16.166 0.105 16.262 0.027 16.376 C 0.006 13.885 0 11.381 0 8.878 C 0 8.433 0.323 8.202 0.662 8.008 C 1.741 7.391 2.826 6.784 3.931 6.17 C 3.611 7.087 3.267 8.006 2.885 8.943 C 2.575 9.113 2.31 9.28 2.029 9.412 C 1.872 9.487 1.839 9.58 1.841 9.736 C 1.85 10.365 1.846 10.994 1.847 11.624 Z M 26.045 27.849 C 24.136 28.938 22.228 30.03 20.317 31.116 C 18.698 32.037 17.074 32.951 15.454 33.87 C 15.152 34.042 14.852 34.043 14.556 33.875 C 13.613 33.34 12.674 32.797 11.732 32.26 C 10.704 31.673 9.673 31.092 8.645 30.505 C 7.647 29.935 6.652 29.359 5.653 28.789 C 4.767 28.284 3.88 27.78 2.99 27.28 C 2.027 26.737 1.06 26.2 0.075 25.649 C 0.356 24.911 0.63 24.188 0.907 23.466 C 1.46 22.022 2.012 20.577 2.57 19.135 C 3.167 17.594 3.775 16.058 4.369 14.517 C 4.679 13.711 5.008 12.909 5.258 12.085 C 5.514 11.239 6.298 11.066 6.97 11.451 C 8.054 12.073 9.156 12.664 10.25 13.27 C 11.719 14.084 13.186 14.903 14.656 15.714 C 15.545 16.204 16.441 16.68 17.33 17.169 C 18.564 17.849 19.794 18.536 21.029 19.216 C 21.765 19.622 22.506 20.018 23.29 20.443 L 27.448 9.14 L 26.256 8.466 C 26.114 8.819 25.974 9.14 25.854 9.467 C 25.21 11.229 24.558 12.987 23.937 14.756 C 23.636 15.614 22.889 15.63 22.231 15.258 C 21.519 14.856 20.804 14.459 20.09 14.062 C 18.84 13.368 17.591 12.674 16.34 11.984 C 15.652 11.605 14.958 11.236 14.27 10.856 C 13.026 10.17 11.786 9.478 10.541 8.793 C 9.682 8.321 8.817 7.859 7.958 7.389 C 7.296 7.028 6.638 6.66 5.972 6.293 L 0.082 21.687 L 0 21.681 C 0 19.937 0 18.193 0.023 16.407 C 0.105 16.262 0.181 16.166 0.223 16.057 C 0.629 15.002 1.035 13.947 1.429 12.888 C 1.584 12.472 1.709 12.045 1.87 11.615 C 1.93 11.508 1.969 11.409 2.006 11.31 C 2.302 10.527 2.598 9.744 2.909 8.943 C 3.267 8.006 3.611 7.087 3.954 6.167 C 5.822 5.099 7.691 4.032 9.557 2.962 C 11.18 2.032 12.804 1.103 14.42 0.161 C 14.962 -0.154 15.415 0.044 15.887 0.319 C 17.197 1.084 18.516 1.835 19.83 2.594 C 20.958 3.246 22.08 3.906 23.21 4.555 C 24.255 5.157 25.309 5.745 26.356 6.346 C 27.251 6.86 28.14 7.384 29.032 7.904 C 29.254 8.034 29.467 8.185 29.702 8.287 C 29.932 8.386 29.937 8.53 29.863 8.718 C 29.349 10.016 28.83 11.312 28.32 12.611 C 27.755 14.052 27.195 15.494 26.64 16.939 C 25.983 18.651 25.316 20.359 24.691 22.082 C 24.466 22.701 23.741 22.941 23.095 22.568 C 22.267 22.089 21.434 21.619 20.597 21.155 C 19.064 20.305 17.527 19.462 15.99 18.619 C 15.131 18.148 14.266 17.69 13.408 17.217 C 11.987 16.432 10.572 15.636 9.15 14.852 C 8.37 14.422 7.582 14.006 6.742 13.554 L 2.572 24.89 L 3.786 25.54 C 4.045 24.843 4.297 24.178 4.541 23.509 C 5.078 22.039 5.602 20.564 6.148 19.097 C 6.349 18.558 6.945 18.294 7.531 18.61 C 8.273 19.009 9.015 19.41 9.753 19.816 C 10.621 20.293 11.485 20.778 12.351 21.258 C 13.601 21.952 14.85 22.646 16.102 23.337 C 17.092 23.884 18.085 24.428 19.077 24.972 C 20.493 25.748 21.91 26.521 23.326 27.296 C 23.551 27.419 23.776 27.544 24.061 27.701 C 26.022 22.57 27.974 17.462 29.926 12.355 C 29.95 12.357 29.975 12.36 30 12.363 C 30 14.119 30 15.876 29.977 17.674 C 29.903 17.798 29.836 17.874 29.803 17.962 C 29.23 19.459 28.661 20.958 28.089 22.481 C 27.759 23.354 27.431 24.203 27.095 25.074 C 26.74 26.014 26.393 26.931 26.045 27.849 M 15.426 2.213 C 15.255 2.165 15.041 2.029 14.919 2.085 C 14.442 2.306 13.992 2.586 13.533 2.846 C 12.616 3.365 11.698 3.883 10.784 4.406 C 10.088 4.805 9.396 5.211 8.67 5.633 C 13.283 8.172 17.861 10.691 22.472 13.229 L 24.588 7.455 C 21.53 5.71 18.496 3.978 15.426 2.213 M 7.723 20.862 C 7.495 20.651 7.494 20.93 7.465 21.005 C 7.308 21.412 7.186 21.831 7.035 22.24 C 6.539 23.589 6.038 24.938 5.531 26.284 C 5.47 26.448 5.455 26.541 5.642 26.645 C 6.507 27.124 7.361 27.625 8.22 28.116 C 9.137 28.64 10.056 29.158 10.973 29.683 C 12.262 30.42 13.548 31.165 14.842 31.894 C 14.931 31.944 15.101 31.933 15.195 31.882 C 15.836 31.531 16.467 31.162 17.102 30.8 C 18.027 30.272 18.953 29.747 19.877 29.218 C 20.37 28.936 20.86 28.649 21.37 28.354 C 20.482 27.872 19.619 27.408 18.761 26.935 C 17.263 26.112 15.77 25.283 14.272 24.459 C 13.433 23.997 12.587 23.545 11.747 23.083 C 10.419 22.352 9.093 21.616 7.723 20.862 Z"
        fill="#808085"/>
    <path
        d="M 50.059 26.64 C 50.04 26.617 49.033 24.921 47.821 22.872 C 45.803 19.459 45.617 19.132 45.617 18.998 L 45.617 18.851 L 46.715 18.86 L 47.813 18.869 L 49.318 21.432 C 50.146 22.842 50.834 24.007 50.849 24.021 C 50.863 24.035 51.562 22.878 52.403 21.45 L 53.931 18.853 L 58.777 18.853 L 63.623 18.852 L 63.623 20.825 L 60.944 20.834 L 58.265 20.842 L 58.255 21.294 L 58.246 21.746 L 60.405 21.755 L 62.564 21.763 L 62.573 22.758 L 62.582 23.753 L 58.248 23.753 L 58.248 24.674 L 63.623 24.674 L 63.623 26.681 L 59.919 26.673 L 56.216 26.664 L 56.199 22.842 L 56.182 19.02 L 53.916 22.85 L 51.65 26.681 L 50.871 26.681 C 50.289 26.681 50.084 26.67 50.059 26.64 Z M 64.093 22.766 L 64.093 18.85 L 67.376 18.86 L 70.66 18.869 L 70.867 18.945 C 71.428 19.15 71.858 19.604 72.008 20.151 C 72.064 20.355 72.073 22.665 72.018 22.897 C 71.885 23.46 71.378 23.976 70.786 24.149 C 70.708 24.172 70.644 24.2 70.645 24.211 C 70.646 24.221 70.963 24.593 71.35 25.036 L 72.053 25.842 L 72.045 26.253 L 72.037 26.664 L 71.063 26.673 L 70.089 26.681 L 69.036 25.448 L 67.983 24.214 L 66.108 24.214 L 66.108 26.681 L 64.093 26.681 Z M 70.031 21.525 L 70.022 20.842 L 68.065 20.834 L 66.108 20.825 L 66.108 22.207 L 70.04 22.207 Z M 74.053 26.647 C 73.334 26.552 72.723 25.999 72.574 25.308 C 72.544 25.171 72.525 24.892 72.525 24.584 L 72.525 24.082 L 74.574 24.082 L 74.574 24.674 L 78.47 24.674 L 78.47 23.753 L 76.26 23.753 C 73.895 23.753 73.86 23.751 73.523 23.585 C 73.121 23.388 72.765 22.99 72.619 22.575 C 72.544 22.363 72.541 22.316 72.541 21.303 C 72.541 20.289 72.544 20.242 72.619 20.031 C 72.811 19.485 73.294 19.045 73.857 18.901 C 74.149 18.827 78.899 18.828 79.191 18.902 C 79.81 19.06 80.323 19.57 80.468 20.171 C 80.502 20.313 80.519 20.556 80.519 20.916 L 80.519 21.451 L 78.47 21.451 L 78.47 20.826 L 74.574 20.826 L 74.574 21.747 L 76.732 21.747 C 78.455 21.748 78.935 21.757 79.113 21.794 C 79.699 21.916 80.212 22.354 80.425 22.917 C 80.493 23.098 80.5 23.181 80.512 24.099 C 80.522 24.911 80.515 25.126 80.472 25.308 C 80.33 25.908 79.879 26.393 79.279 26.59 C 79.06 26.662 79.037 26.663 76.656 26.668 C 75.335 26.672 74.164 26.662 74.053 26.647 Z M 81.091 22.766 L 81.091 18.852 L 88.481 18.852 L 88.481 20.825 L 85.802 20.834 L 83.123 20.842 L 83.114 21.294 L 83.104 21.747 L 87.44 21.747 L 87.44 23.753 L 83.106 23.753 L 83.106 24.674 L 88.481 24.674 L 88.481 26.681 L 81.091 26.681 Z M 45.617 11.023 L 45.617 6.681 L 47.829 6.681 L 50.007 9.22 L 52.184 11.758 L 52.193 9.22 L 52.202 6.681 L 54.485 6.681 L 54.485 15.365 L 52.276 15.365 L 50.097 12.826 L 47.918 10.288 L 47.909 12.826 L 47.901 15.365 L 45.617 15.365 Z M 57.341 11.023 L 57.341 6.681 L 65.571 6.681 L 65.571 8.918 L 59.625 8.918 L 59.625 9.905 L 64.395 9.905 L 64.395 12.142 L 59.625 12.142 L 59.625 13.129 L 65.571 13.129 L 65.571 15.365 L 57.341 15.365 Z M 68.158 14.89 L 68.158 14.415 L 69.602 12.729 C 70.396 11.801 71.046 11.034 71.046 11.025 C 71.046 11.015 70.396 10.249 69.602 9.323 L 68.158 7.638 L 68.158 6.681 L 70.33 6.681 L 71.447 7.979 L 72.564 9.277 L 73.091 8.662 C 73.381 8.323 73.88 7.739 74.2 7.364 L 74.781 6.681 L 76.992 6.681 L 76.992 7.606 L 75.531 9.306 C 74.727 10.24 74.07 11.014 74.07 11.025 C 74.07 11.036 74.727 11.806 75.53 12.736 L 76.99 14.428 L 76.991 14.897 L 76.992 15.365 L 74.78 15.365 L 73.681 14.091 C 73.077 13.39 72.571 12.816 72.556 12.816 C 72.542 12.816 72.036 13.39 71.433 14.091 L 70.335 15.365 L 68.158 15.365 Z M 79.747 11.87 C 79.748 8.02 79.74 8.171 79.958 7.736 C 80.106 7.439 80.49 7.064 80.813 6.9 C 81.247 6.68 81.211 6.683 84.184 6.682 C 86.738 6.681 86.869 6.684 87.117 6.746 C 87.476 6.836 87.753 6.989 88.013 7.241 C 88.256 7.475 88.38 7.662 88.512 7.993 L 88.598 8.211 L 88.607 11.788 L 88.616 15.365 L 86.33 15.365 L 86.33 12.701 L 82.031 12.701 L 82.031 15.365 L 79.746 15.365 Z M 86.323 9.699 L 86.332 8.918 L 82.031 8.918 L 82.031 10.498 L 84.173 10.489 L 86.314 10.481 Z"
        fill="#808085"/>
</svg>
