<svg width="64" height="64" viewBox="0 0 64 64" fill="none" xmlns="http://www.w3.org/2000/svg">
    <path d="M -1 16 C -1 7.2 6.2 0 15 0 H 47 C 55.8 0 63 7.2 63 16 V 48 C 63 56.8 55.8 64 47 64 H 15 C 6.2 64 -1 56.8 -1 48 V 16 Z" fill="url(#paint0_linear_22219_377)"/>
    <path d="m 32.344874,56.947048 c -0.054,-0.03386 -0.11465,-0.06881 -0.13488,-0.07767 -0.0202,-0.0089 -0.0649,-0.03601 -0.0993,-0.06033 -0.0344,-0.02432 -0.37094,-0.227351 -0.74796,-0.451179 -0.37702,-0.223828 -0.71533,-0.425242 -0.75181,-0.447584 -0.0365,-0.02234 -0.26687,-0.159262 -0.51198,-0.304263 -0.24511,-0.145 -0.49115,-0.290656 -0.54675,-0.323681 -0.10131,-0.06016 -0.19128,-0.113021 -0.3402,-0.199843 -0.0438,-0.02556 -0.20109,-0.119975 -0.34946,-0.20982 -0.24798,-0.150168 -0.63654,-0.381235 -0.84605,-0.503124 -0.0472,-0.02747 -0.11342,-0.06879 -0.14714,-0.09184 -0.0337,-0.02305 -0.0944,-0.05804 -0.13487,-0.07776 -0.0405,-0.01972 -0.10116,-0.05471 -0.13488,-0.07776 -0.0337,-0.02305 -0.10269,-0.06582 -0.15327,-0.09506 -0.10921,-0.06312 -0.15721,-0.09146 -0.5579,-0.329349 -0.39588,-0.235029 -0.38055,-0.225875 -0.88284,-0.526916 -0.55337,-0.331656 -0.49759,-0.298526 -1.06676,-0.63365 -0.26975,-0.158832 -0.60081,-0.355988 -0.73569,-0.438125 -0.13488,-0.08214 -0.31144,-0.187087 -0.39237,-0.233222 -0.0809,-0.04613 -0.183,-0.111001 -0.22684,-0.144149 l -0.0797,-0.06027 3e-4,-5.353077 3.1e-4,-5.353077 0.0865,-0.05737 c 0.0476,-0.03155 0.46954,-0.284608 0.93771,-0.562344 0.46817,-0.277736 0.94501,-0.561262 1.05966,-0.630054 0.20894,-0.125376 0.29377,-0.175728 0.45368,-0.269285 0.11657,-0.0682 0.19475,-0.114448 0.55177,-0.326408 0.1686,-0.100094 0.34093,-0.202147 0.38297,-0.226784 0.042,-0.02464 0.14701,-0.0882 0.23327,-0.141257 0.28885,-0.177661 0.27979,-0.174922 0.38342,-0.115955 0.0504,0.02867 0.13136,0.07473 0.17993,0.102334 0.0486,0.02761 0.16996,0.100484 0.26976,0.161944 0.18457,0.113673 0.43595,0.262588 0.63512,0.376231 0.0607,0.03463 0.20967,0.122373 0.33106,0.194979 0.2242,0.134103 0.31219,0.186261 0.46594,0.276217 0.0472,0.02762 0.1217,0.07156 0.16553,0.09765 0.0438,0.02609 0.27834,0.163417 0.52112,0.305171 0.24278,0.141752 0.44897,0.269576 0.45819,0.284054 0.0188,0.02948 -0.054,0.0841 -0.32331,0.242504 -0.30315,0.178327 -0.42526,0.25087 -0.50273,0.298651 -0.0405,0.02496 -0.11495,0.06958 -0.16553,0.09915 -0.21764,0.127262 -0.25825,0.151396 -0.38624,0.229533 -0.12686,0.07745 -0.16527,0.10028 -0.38011,0.225975 -0.0472,0.02762 -0.12169,0.07123 -0.16553,0.09691 -0.0438,0.02568 -0.32248,0.191667 -0.61921,0.368862 -0.29673,0.177197 -0.67745,0.403689 -0.84605,0.503321 l -0.30654,0.181147 v 3.345903 3.345903 l 0.0736,0.04284 c 0.0861,0.05014 0.75489,0.447305 1.43461,0.851946 0.26301,0.156571 0.66028,0.391834 0.88283,0.522804 0.22255,0.13097 0.48628,0.288578 0.58607,0.350239 0.0998,0.06166 0.21567,0.132117 0.2575,0.156575 0.0418,0.02446 0.17537,0.103861 0.29676,0.176454 0.22446,0.134232 0.31267,0.18652 0.46594,0.276192 0.0472,0.02762 0.12445,0.07281 0.17166,0.100433 0.0472,0.02762 0.12721,0.07458 0.17779,0.104371 0.0506,0.02978 0.11403,0.06679 0.14101,0.08225 0.027,0.01545 0.0957,0.05887 0.15278,0.0965 0.0571,0.03762 0.11053,0.0684 0.11883,0.0684 0.008,0 0.0444,0.02127 0.0802,0.04728 0.0358,0.026 0.10372,0.06975 0.15092,0.09721 0.0472,0.02746 0.19285,0.113528 0.32364,0.19125 0.13079,0.07773 0.25,0.141318 0.26492,0.141318 0.0149,0 0.13413,-0.06359 0.26492,-0.141318 0.24655,-0.146512 0.34146,-0.202636 0.47691,-0.282016 0.0438,-0.02569 0.14039,-0.08376 0.21457,-0.12905 0.0742,-0.04529 0.16799,-0.10191 0.20845,-0.125825 0.0405,-0.02392 0.17289,-0.102882 0.29428,-0.175475 0.21804,-0.130395 0.30415,-0.181461 0.45981,-0.272684 0.0438,-0.02569 0.14039,-0.08376 0.21458,-0.12905 0.12686,-0.07745 0.16527,-0.10028 0.3801,-0.225975 0.23841,-0.139482 1.00064,-0.591831 1.45913,-0.865929 0.23604,-0.141106 0.61676,-0.367254 0.84605,-0.502553 0.22929,-0.135297 0.49414,-0.293143 0.58856,-0.350766 l 0.17166,-0.104773 0.006,-3.218874 0.006,-3.218873 -0.10432,-0.06255 c -0.0574,-0.0344 -0.22494,-0.135836 -0.37236,-0.225415 -0.14743,-0.08958 -0.27109,-0.162868 -0.27481,-0.162868 -0.004,0 -0.0652,-0.03548 -0.13658,-0.07885 -0.14957,-0.09083 -1.02965,-0.612601 -1.30694,-0.774836 -0.0472,-0.02762 -0.12446,-0.07281 -0.17166,-0.100434 -0.12128,-0.07095 -0.20395,-0.119887 -0.55178,-0.326584 -0.16859,-0.10019 -0.36723,-0.216303 -0.44141,-0.258031 -0.0742,-0.04172 -0.16417,-0.09674 -0.19997,-0.12225 -0.0358,-0.02551 -0.0712,-0.04639 -0.0786,-0.04639 -0.007,0 -0.072,-0.03548 -0.14336,-0.07883 -0.0714,-0.04336 -0.16293,-0.09841 -0.20339,-0.122345 -0.0405,-0.02393 -0.32646,-0.192875 -0.63554,-0.37543 -0.30908,-0.182556 -0.60406,-0.359125 -0.65551,-0.392376 -0.0514,-0.03325 -0.0995,-0.06046 -0.10677,-0.06046 -0.007,0 -0.0544,-0.02645 -0.10471,-0.05878 -0.0503,-0.03233 -0.14114,-0.08743 -0.20183,-0.122458 -0.0929,-0.05359 -0.2912,-0.170591 -0.9748,-0.575069 -0.0438,-0.02594 -0.11832,-0.06976 -0.16553,-0.09737 -0.21246,-0.124301 -0.25281,-0.148235 -0.37506,-0.222468 -0.0714,-0.04336 -0.13404,-0.07883 -0.1392,-0.07883 -0.005,0 -0.0973,-0.05522 -0.20466,-0.122705 -0.10739,-0.06749 -0.25442,-0.156211 -0.32673,-0.197168 -0.0723,-0.04095 -0.17284,-0.09873 -0.22342,-0.128379 -0.0506,-0.02965 -0.12783,-0.07493 -0.17166,-0.100624 -0.0438,-0.02569 -0.13813,-0.08218 -0.20953,-0.125542 -0.0714,-0.04336 -0.13363,-0.07883 -0.13829,-0.07883 -0.005,0 -0.15437,-0.09039 -0.3327,-0.200866 -0.17834,-0.110477 -0.32751,-0.200867 -0.33151,-0.200867 -0.004,0 -0.14347,-0.08078 -0.30995,-0.179517 -0.16648,-0.09873 -0.41304,-0.243878 -0.54792,-0.322542 -0.74274,-0.433184 -0.79824,-0.473483 -0.86031,-0.624605 -0.0294,-0.07161 -0.0348,-0.583649 -0.0348,-3.319301 v -3.234633 l 0.0797,-0.05946 c 0.0438,-0.0327 0.15064,-0.09716 0.23734,-0.143232 l 0.15765,-0.08377 0.11211,0.05903 c 0.0617,0.03247 0.1397,0.07797 0.17342,0.101122 0.0498,0.03417 0.50237,0.305 0.92575,0.553952 0.0438,0.02578 0.11556,0.06795 0.1594,0.09372 0.0438,0.02577 0.4218,0.247134 0.83992,0.491912 0.41811,0.244779 0.77949,0.464069 0.80305,0.487311 0.0405,0.03991 0.0303,0.05006 -0.18297,0.182828 -0.15967,0.0994 -0.22967,0.158047 -0.23902,0.200249 -0.007,0.03282 -0.0102,0.655978 -0.006,1.384791 l 0.007,1.32511 0.23847,0.158858 c 0.13116,0.08737 0.30468,0.195868 0.3856,0.241103 0.0809,0.04523 0.1637,0.09492 0.18393,0.110409 0.0202,0.01549 0.0631,0.04335 0.0953,0.06191 0.0322,0.01856 0.0957,0.05528 0.14101,0.0816 0.0454,0.02632 0.12385,0.07177 0.17443,0.100991 0.0506,0.02923 0.18576,0.10994 0.30041,0.179367 0.25859,0.156595 0.34414,0.20678 0.51499,0.302088 0.0742,0.04138 0.14591,0.08371 0.1594,0.09406 0.0135,0.01035 0.0659,0.04262 0.11648,0.07171 0.10501,0.0604 0.22772,0.132065 0.34333,0.20052 0.0438,0.02595 0.29489,0.1742 0.5579,0.329432 0.26301,0.155232 0.51406,0.303477 0.5579,0.329431 0.0438,0.02596 0.11557,0.0682 0.1594,0.09386 0.0438,0.02567 0.12513,0.07369 0.18066,0.106711 0.0555,0.03302 0.33693,0.199318 0.62534,0.36954 0.28841,0.170222 0.54093,0.319717 0.56117,0.332208 0.0202,0.01249 0.0975,0.0584 0.17166,0.102023 0.0742,0.04362 0.16798,0.09895 0.20845,0.12296 0.0405,0.02401 0.25013,0.148092 0.46594,0.275743 0.2158,0.127651 0.42823,0.253313 0.47207,0.27925 0.0438,0.02594 0.11832,0.06976 0.16553,0.09737 0.0472,0.02762 0.12445,0.07281 0.17166,0.100433 0.0472,0.02762 0.12445,0.07282 0.17166,0.100434 0.11658,0.0682 0.19475,0.114449 0.55177,0.326408 0.1686,0.100095 0.34241,0.203184 0.38624,0.229091 0.0438,0.02591 0.11557,0.0683 0.1594,0.0942 0.0438,0.02591 0.21591,0.127595 0.38239,0.225975 0.16648,0.09838 0.30763,0.178874 0.31366,0.178874 0.006,0 0.0409,0.02114 0.0774,0.04698 0.086,0.06077 0.49229,0.303588 1.32118,0.789495 0.78953,0.462832 0.83929,0.494328 0.9655,0.611072 l 0.0972,0.0899 v 5.240832 c 0,4.959486 -0.002,5.242952 -0.0429,5.280321 -0.0236,0.02172 -0.17534,0.117662 -0.33719,0.213212 -0.28099,0.165879 -0.47987,0.284362 -1.50817,0.898497 -0.24953,0.149026 -0.61921,0.369128 -0.82153,0.489121 -0.20232,0.119993 -0.50579,0.300308 -0.67439,0.400699 -0.32384,0.19283 -0.41654,0.247782 -0.54564,0.323441 -0.0438,0.02569 -0.13812,0.08218 -0.20952,0.125542 -0.0714,0.04336 -0.13675,0.07883 -0.14521,0.07883 -0.008,0 -0.0328,0.01548 -0.0541,0.03441 -0.0213,0.01892 -0.0884,0.06266 -0.14907,0.09718 -0.0607,0.03453 -0.20967,0.122406 -0.33106,0.195283 -0.3389,0.20346 -0.86235,0.514821 -1.0545,0.627241 -0.12365,0.07234 -0.94899,0.562794 -1.22615,0.728629 -0.0405,0.02421 -0.25014,0.148275 -0.46594,0.2757 -0.39834,0.235203 -0.88088,0.524041 -1.10355,0.660563 -0.32024,0.196342 -0.33631,0.199717 -0.49046,0.102974 z m 4.46321,-20.733214 c -0.24278,-0.142281 -0.51703,-0.305902 -0.60945,-0.363601 -0.0924,-0.0577 -0.17194,-0.10491 -0.17671,-0.10491 -0.005,0 -0.0671,-0.03548 -0.13851,-0.07883 -0.14586,-0.08857 -0.13227,-0.08048 -0.66933,-0.398402 -0.21581,-0.127748 -0.45307,-0.266434 -0.52725,-0.30819 -0.0742,-0.04176 -0.16417,-0.0968 -0.19997,-0.122307 -0.0358,-0.02551 -0.0744,-0.04644 -0.0858,-0.04651 -0.0439,-2.51e-4 -0.15472,-0.113894 -0.13712,-0.140602 0.0101,-0.01526 0.10602,-0.07684 0.21326,-0.13685 0.31597,-0.176826 0.28323,2.51e-4 0.28323,-1.531873 0,-0.804441 -0.009,-1.350264 -0.0236,-1.377492 -0.0194,-0.03714 -0.19439,-0.160171 -0.41325,-0.290563 -0.0232,-0.01381 -0.13577,-0.08277 -0.25021,-0.153238 -0.11443,-0.07047 -0.25772,-0.156575 -0.31842,-0.191342 -0.0607,-0.03477 -0.20967,-0.122618 -0.33106,-0.195225 -0.32796,-0.196163 -0.34152,-0.204197 -0.68665,-0.406826 -0.17534,-0.102944 -0.3795,-0.22157 -0.45368,-0.263614 -0.0742,-0.04204 -0.27282,-0.158557 -0.44142,-0.258921 -0.33162,-0.197412 -0.41664,-0.247509 -0.5579,-0.328756 -0.0506,-0.02909 -0.10299,-0.06136 -0.11648,-0.07171 -0.0135,-0.01035 -0.0852,-0.05268 -0.1594,-0.09406 -0.0742,-0.04138 -0.17626,-0.0995 -0.22684,-0.129158 -0.0506,-0.02965 -0.12783,-0.07493 -0.17166,-0.100624 -0.0438,-0.02569 -0.1404,-0.08376 -0.21458,-0.129049 -0.14937,-0.09119 -0.13038,-0.07987 -0.66213,-0.394677 -0.20906,-0.12377 -0.47825,-0.283329 -0.5982,-0.354576 -0.11996,-0.07125 -0.22101,-0.129539 -0.22456,-0.129539 -0.004,0 -0.1206,-0.06948 -0.26011,-0.154407 -0.1395,-0.08492 -0.28675,-0.173575 -0.32721,-0.197004 -0.0742,-0.04298 -1.13876,-0.671695 -1.2752,-0.753141 -0.0405,-0.02415 -0.2998,-0.176783 -0.5763,-0.339178 -0.2765,-0.162395 -0.54135,-0.317976 -0.58855,-0.345735 -0.0472,-0.02776 -0.15323,-0.08858 -0.23559,-0.135166 -0.0824,-0.04658 -0.16793,-0.105248 -0.19014,-0.130369 -0.0372,-0.04206 -0.0399,-0.356626 -0.0342,-3.97173 l 0.006,-3.926055 0.19618,-0.1163 c 0.10791,-0.06396 0.41138,-0.244335 0.67439,-0.400823 0.26301,-0.156488 0.5389,-0.318233 0.61308,-0.359435 0.0742,-0.0412 0.14591,-0.08338 0.1594,-0.09373 0.0135,-0.01035 0.0632,-0.04117 0.11035,-0.06849 0.0472,-0.02732 0.18515,-0.109143 0.30654,-0.181833 0.12139,-0.07269 0.28141,-0.166254 0.35559,-0.207921 0.0742,-0.04167 0.16417,-0.09663 0.19997,-0.122143 0.0358,-0.02551 0.0727,-0.04639 0.0821,-0.04639 0.009,0 0.0462,-0.02087 0.082,-0.04639 0.0358,-0.02551 0.12579,-0.08042 0.19997,-0.122015 0.0742,-0.0416 0.31145,-0.180813 0.52725,-0.309371 0.34975,-0.208354 0.82601,-0.491319 1.06676,-0.633809 0.0472,-0.02794 0.14652,-0.08476 0.22071,-0.126258 0.0742,-0.0415 0.16417,-0.09633 0.19997,-0.121844 0.0358,-0.02551 0.0715,-0.04639 0.0794,-0.04639 0.008,0 0.10546,-0.05539 0.21692,-0.123082 0.31674,-0.192371 1.0956,-0.654567 1.24489,-0.738755 0.0742,-0.04183 0.20661,-0.121417 0.29428,-0.176856 0.22454,-0.141989 0.27181,-0.136949 0.60082,0.06405 0.14836,0.09064 0.56219,0.337198 0.91961,0.547905 0.77225,0.455247 0.78519,0.462871 0.8951,0.527174 0.0472,0.02762 0.1217,0.07144 0.16553,0.09737 0.15731,0.09308 0.84451,0.500424 1.07289,0.63597 0.12813,0.07605 0.28263,0.166578 0.34332,0.201179 0.0607,0.0346 0.16553,0.09687 0.23297,0.138368 0.24477,0.150625 0.56703,0.342717 0.69891,0.416602 0.0742,0.04156 0.21213,0.122994 0.30654,0.180968 0.14972,0.09193 0.31012,0.186066 0.65042,0.381704 0.0475,0.02732 0.22408,0.131946 0.39237,0.232513 0.36495,0.218084 0.37999,0.227023 0.71675,0.42601 l 0.26362,0.155771 v 4.012393 4.012393 l -0.0597,0.04008 c -0.0329,0.02204 -0.0991,0.06289 -0.14714,0.09077 -0.15981,0.09269 -0.2706,0.157802 -0.33795,0.198618 -0.0366,0.02221 -0.22976,0.137481 -0.42915,0.256157 -0.19939,0.118675 -0.51702,0.30789 -0.70585,0.420477 -0.18883,0.112587 -0.3623,0.204742 -0.3855,0.20479 -0.0232,5e-5 -0.0784,-0.02125 -0.12261,-0.04732 -0.0443,-0.02608 -0.2846,-0.169031 -0.53413,-0.317678 -0.24952,-0.148647 -0.48954,-0.291144 -0.53338,-0.31666 -0.0821,-0.04778 -0.19184,-0.111945 -0.33106,-0.193536 -0.0438,-0.02569 -0.13812,-0.08218 -0.20953,-0.125542 -0.0714,-0.04336 -0.13339,-0.07883 -0.13775,-0.07883 -0.004,0 -0.13699,-0.07909 -0.29473,-0.175758 -0.15773,-0.09667 -0.29268,-0.175758 -0.29987,-0.175758 -0.007,0 -0.0424,-0.02087 -0.0782,-0.04639 -0.0358,-0.02551 -0.12578,-0.08052 -0.19997,-0.122241 -0.12571,-0.0707 -0.46623,-0.279102 -0.48782,-0.298549 -0.0296,-0.02663 0.12917,-0.137898 0.50009,-0.350521 0.027,-0.01546 0.0877,-0.05108 0.13487,-0.07914 0.0472,-0.02806 0.23481,-0.138709 0.4169,-0.245877 0.534,-0.314296 0.94279,-0.568876 0.96216,-0.599209 0.01,-0.01552 0.0182,-1.023579 0.0184,-2.240135 3.5e-4,-2.07526 -0.002,-2.214332 -0.0425,-2.250961 -0.038,-0.03461 -0.1475,-0.104102 -0.38624,-0.245218 -0.0405,-0.02392 -0.17289,-0.102881 -0.29428,-0.175474 -0.41774,-0.249819 -0.78996,-0.469881 -0.94414,-0.558201 -0.0607,-0.03477 -0.18631,-0.110863 -0.27915,-0.169101 -0.0928,-0.05824 -0.20595,-0.127446 -0.25137,-0.153797 -0.0454,-0.02635 -0.11843,-0.0691 -0.16226,-0.095 -0.0438,-0.0259 -0.22868,-0.134799 -0.41076,-0.241998 -0.18209,-0.1072 -0.41089,-0.244192 -0.50844,-0.304427 -0.0976,-0.06024 -0.18175,-0.109519 -0.18709,-0.109519 -0.005,0 -0.0738,-0.03955 -0.15224,-0.08788 -0.0784,-0.04833 -0.1571,-0.08788 -0.1749,-0.08788 -0.03,0 -0.63362,0.347453 -1.00482,0.578347 -0.088,0.05477 -0.16345,0.09958 -0.16756,0.09958 -0.004,0 -0.12162,0.06948 -0.26112,0.154407 -0.1395,0.08492 -0.28951,0.175314 -0.33334,0.200867 -0.34538,0.201332 -0.46538,0.272344 -1.02385,0.60588 -0.88188,0.526692 -0.99316,0.599851 -0.99554,0.654522 -0.009,0.201567 0.009,4.223464 0.0189,4.249594 0.0102,0.02716 0.15606,0.120144 0.62639,0.399263 0.0233,0.01381 0.39747,0.234135 0.83155,0.489612 0.43408,0.255478 0.82891,0.488488 0.87739,0.517801 0.2862,0.173053 0.54658,0.327104 0.66444,0.393114 0.0742,0.04155 0.14591,0.08401 0.1594,0.09436 0.0135,0.01035 0.0659,0.04262 0.11648,0.07171 0.0506,0.02909 0.13059,0.07549 0.17779,0.103109 0.0472,0.02762 0.12446,0.07281 0.17167,0.100433 0.0472,0.02762 0.12445,0.07281 0.17166,0.100433 0.15327,0.08967 0.24148,0.141961 0.46594,0.276192 0.22446,0.134231 0.31267,0.186521 0.46594,0.276192 0.0472,0.02762 0.12445,0.07281 0.17166,0.100433 0.0472,0.02762 0.12446,0.07281 0.17166,0.100434 0.0472,0.02762 0.1217,0.07167 0.16553,0.09789 0.0937,0.05607 0.94808,0.56345 1.07289,0.637168 0.0472,0.02788 0.14653,0.08455 0.22071,0.125938 0.0742,0.04138 0.14591,0.08371 0.1594,0.09406 0.0135,0.01035 0.0632,0.04122 0.11035,0.06859 0.0472,0.02738 0.22378,0.131672 0.39238,0.231766 0.35702,0.21196 0.43519,0.258205 0.55177,0.326409 0.0472,0.02762 0.12445,0.07281 0.17166,0.100433 0.0472,0.02762 0.12445,0.07281 0.17166,0.100433 0.0472,0.02762 0.12721,0.07459 0.17779,0.10437 0.0506,0.02978 0.11404,0.06669 0.14101,0.08201 0.29632,0.168331 0.58572,0.357797 0.62538,0.409416 0.12559,0.163475 0.12258,0.07703 0.12258,3.512693 v 3.195479 l -0.0797,0.06006 c -0.0976,0.07354 -0.47461,0.294187 -0.50158,0.293539 -0.0108,-2.51e-4 -0.21818,-0.116882 -0.46096,-0.259161 z m -10.5939,-20.788917 c -0.0269,-0.01645 -0.0766,-0.04838 -0.11035,-0.07096 -0.0338,-0.02258 -0.11659,-0.07215 -0.18403,-0.110155 -0.28134,-0.158566 -0.45234,-0.265672 -0.46947,-0.294044 -0.01,-0.01661 -0.0211,-1.795018 -0.0247,-3.952015 -0.006,-3.562957 -0.003,-3.924851 0.0326,-3.955021 0.0302,-0.02563 0.18396,-0.03329 0.67419,-0.03356 0.5381,-2.95e-4 0.63866,0.0054 0.65839,0.03731 0.0144,0.0233 0.0234,1.378821 0.0237,3.555216 3.5e-4,3.31842 0.003,3.519726 0.0433,3.555919 0.0236,0.0211 0.20293,0.131253 0.3985,0.244782 0.19558,0.113529 0.37179,0.222341 0.39158,0.241803 0.0455,0.0447 0.0351,0.05244 -0.45288,0.338593 -0.20232,0.118637 -0.46528,0.274041 -0.58436,0.345343 -0.21853,0.130844 -0.30584,0.152158 -0.39647,0.09678 z m 12.35835,0.01012 c -0.0128,-0.01251 -0.0619,-0.04503 -0.10913,-0.07227 -0.0472,-0.02724 -0.2624,-0.153966 -0.4782,-0.281617 -0.21581,-0.127651 -0.42673,-0.252251 -0.46872,-0.276889 -0.14785,-0.08676 -0.18114,-0.112059 -0.18051,-0.137161 3.5e-4,-0.01394 0.16755,-0.121385 0.37156,-0.238767 0.20402,-0.117381 0.39685,-0.234014 0.42852,-0.259183 l 0.0576,-0.04576 v -3.522824 c 0,-2.869165 0.006,-3.527878 0.032,-3.550055 0.0351,-0.02979 1.27015,-0.04605 1.31556,-0.01732 0.0405,0.02564 0.0356,7.908032 -0.005,7.941788 -0.0431,0.03587 -0.6333,0.382246 -0.65249,0.382925 -0.009,3.07e-4 -0.0434,0.02265 -0.0771,0.04966 -0.0641,0.0513 -0.19416,0.06656 -0.23419,0.02747 z" fill="#13151a"/>
    <defs>
        <linearGradient id="paint0_linear_22219_377" x1="32" y1="0" x2="32" y2="64" gradientUnits="userSpaceOnUse">
            <stop stop-color="#ffd000"/>
            <stop offset="1" stop-color="#ffa800"/>
        </linearGradient>
    </defs>
</svg>
